<svg width="152" height="102" viewBox="0 0 152 102" fill="none" xmlns="http://www.w3.org/2000/svg">
<g opacity="0.3">
<g opacity="0.88">
<path opacity="0.88" d="M97.2475 7.38052C97.8735 7.46783 98.2624 8.10662 98.0527 8.70278L67.0438 96.8502C66.9029 97.2505 66.5248 97.5184 66.1004 97.5184H1.57241C0.845149 97.5184 0.361123 96.7667 0.662016 96.1046L44.0286 0.679836C44.2119 0.276618 44.6385 0.0419781 45.0772 0.103167L97.2475 7.38052Z" fill="#00B5FF"/>
</g>
<path opacity="0.2" d="M151.269 96.0048C151.552 96.6647 151.068 97.3989 150.35 97.3989H131.374C130.974 97.3989 130.613 97.1606 130.455 96.793L116.81 64.972C116.527 64.3121 117.011 63.5779 117.729 63.5779H136.705C137.105 63.5779 137.467 63.8162 137.625 64.1838L151.269 96.0048Z" fill="#0096C3"/>
<g style="mix-blend-mode:screen" opacity="0.71">
<path d="M120.943 39.7187C121.475 39.9081 121.745 40.4996 121.539 41.0251L99.4147 97.563C99.2663 97.942 98.9031 98.1933 98.4962 98.1985L78.0958 98.4585C77.3862 98.4676 76.8932 97.7551 77.1518 97.0943L101.858 33.9476C102.055 33.4444 102.616 33.1886 103.125 33.37L120.943 39.7187Z" fill="#00B5FF" fill-opacity="0.5"/>
</g>
<g clip-path="url(#clip0_373_3711)">
<path d="M56.4737 95.2267C56.4572 94.4882 56.4431 93.7493 56.4236 93.0109C56.3887 91.7082 56.352 90.4065 56.3133 89.1057C56.2718 87.6478 56.2304 86.19 56.1889 84.7324C56.1823 84.6704 56.172 84.6088 56.1582 84.548C56.0533 84.5936 55.9617 84.6192 55.8854 84.6701C55.2746 85.0622 54.7157 85.5091 54.3006 86.11C53.9842 86.5607 53.84 87.1067 53.8934 87.6516C53.9382 88.1629 54.0232 88.6693 54.0883 89.1806C54.1028 89.293 54.1078 89.4066 54.1182 89.5315C54.0792 89.5218 54.0543 89.523 54.0431 89.5116C52.8697 88.3481 52.5164 86.662 53.1176 85.282C53.3469 84.7556 53.7284 84.3331 54.1331 83.9333C54.3661 83.7033 54.619 83.4932 54.8931 83.247C54.6501 83.0585 54.4698 82.9156 54.2857 82.7772C53.6032 82.2634 52.9688 81.7029 52.4662 81.0104C51.8886 80.2146 51.7016 79.3182 51.7348 78.3579C51.7725 77.2779 52.2232 76.3737 52.9256 75.5702C53.0426 75.4362 53.1483 75.2925 53.2702 75.1631C53.373 75.054 53.3846 74.9791 53.2652 74.8622C52.7855 74.3933 52.2987 73.9292 51.8496 73.4326C50.8441 72.3196 50.2429 71.0071 50.0252 69.542C49.7839 67.9223 50.2636 66.5064 51.4524 65.356C51.95 64.8724 52.5139 64.4498 53.0621 64.0175C53.4622 63.7016 53.4663 63.7236 53.0446 63.435C51.9645 62.6953 50.9416 61.8945 50.1811 60.8158C49.3336 59.6136 48.9894 58.2743 49.1113 56.8324C49.2324 55.3967 49.9319 54.2226 50.981 53.2444C51.3404 52.909 51.7418 52.6175 52.1229 52.3044C52.1963 52.2442 52.2634 52.1762 52.3617 52.0858C52.2112 51.9934 52.0843 51.9051 51.9471 51.8334C50.8213 51.2383 49.7859 50.5234 48.9057 49.6075C48.2037 48.8747 47.6655 48.0549 47.476 47.0429C47.2164 45.6628 47.6522 44.5084 48.6419 43.5297C49.4235 42.7563 50.3752 42.3899 51.4789 42.3406C52.1009 42.3134 52.7092 42.3317 53.2988 42.521C53.5572 42.6106 53.8017 42.735 54.0253 42.8906C54.2566 43.0449 54.3222 43.2606 54.1729 43.4955C53.9979 43.7719 53.7848 44.0451 53.5285 44.2462C53.2312 44.479 52.89 44.7054 52.5305 44.8055C51.5946 45.0661 50.6845 45.0359 49.936 44.2954C49.8593 44.2193 49.7702 44.1554 49.6458 44.0512C49.5927 44.1762 49.5214 44.2722 49.5144 44.3724C49.4439 45.4569 49.6159 46.4795 50.3329 47.3575C50.6625 47.7593 51.0542 48.1078 51.4939 48.3903C52.3999 48.9786 53.4054 49.3466 54.4283 49.6767C54.714 49.7687 55.0042 49.8465 55.3451 49.9466C55.1933 43.8074 55.0428 37.7141 54.8915 31.5928H58.3828C58.2347 37.6962 58.0863 43.796 57.9366 49.956C58.3641 49.8249 58.7369 49.717 59.1051 49.5969C60.1417 49.2586 61.1484 48.8544 62.0358 48.2128C62.8999 47.5871 63.5119 46.784 63.7035 45.7329C63.7839 45.2904 63.7607 44.8283 63.7682 44.3748C63.7682 44.2792 63.6985 44.1823 63.6488 44.0553C63.5434 44.1334 63.463 44.1754 63.4058 44.2385C62.8116 44.8926 62.0403 45.0294 61.2131 44.9199C60.3221 44.8023 59.6561 44.2991 59.1399 43.5997C58.9355 43.3221 58.9981 43.0705 59.2763 42.8584C59.6309 42.5894 60.0488 42.4689 60.4788 42.4049C61.4545 42.2592 62.4243 42.2767 63.3419 42.6797C64.6762 43.2655 65.5615 44.2572 65.8173 45.6759C66.0504 46.9684 65.6075 48.1184 64.7899 49.1389C63.893 50.2576 62.7324 51.0522 61.4897 51.7492C61.306 51.8522 61.124 51.9576 60.8976 52.0866C61.1049 52.2531 61.2683 52.3936 61.4408 52.5235C62.3161 53.1825 63.0757 53.9434 63.5874 54.9139C64.3561 56.3716 64.3491 57.8754 63.8333 59.4036C63.4559 60.5227 62.7676 61.4333 61.8525 62.1787C61.2691 62.6538 60.6592 63.0979 60.0583 63.5522C59.8639 63.6991 59.851 63.715 60.0372 63.864C60.4896 64.2304 60.9631 64.5719 61.4055 64.9505C62.3041 65.7207 62.9766 66.6359 63.2142 67.8132C63.4265 68.8671 63.2606 69.8868 62.9264 70.8903C62.5433 72.0399 61.8757 73.0169 61.0253 73.8799C60.6986 74.2117 60.3664 74.5382 60.0256 74.8569C59.8987 74.975 59.9178 75.0495 60.0169 75.1741C60.3486 75.5897 60.7019 75.9943 60.978 76.4442C61.8488 77.86 61.7849 79.9899 60.5377 81.376C59.9663 82.0115 59.3054 82.5403 58.6303 83.0581C58.5718 83.1033 58.5171 83.1537 58.4379 83.2209C58.6253 83.4098 58.7991 83.5909 58.9794 83.7652C59.4385 84.2089 59.9037 84.6563 60.1492 85.2519C60.677 86.5338 60.5161 87.7558 59.7382 88.9014C59.5844 89.1281 59.4028 89.3369 59.2336 89.5527L59.1536 89.5189C59.1951 89.2299 59.2336 88.9404 59.278 88.6522C59.3725 88.0624 59.4712 87.4717 59.3236 86.8777C59.1461 86.1658 58.6772 85.6459 58.1211 85.1932C57.8648 84.9876 57.5973 84.7958 57.3196 84.6188C57.1538 84.511 57.099 84.546 57.0916 84.7357C57.0501 85.8197 56.9983 86.9038 56.9697 87.9883C56.9182 89.9276 56.8805 91.8674 56.837 93.8067C56.8262 94.2806 56.8156 94.7546 56.805 95.2287L56.4737 95.2267ZM57.6692 61.3206C57.8039 61.2623 57.9014 61.2351 57.9822 61.183C58.5926 60.7905 59.1503 60.3403 59.5811 59.7545C60.3059 58.7681 60.5281 57.7048 60.0372 56.5577C59.6702 55.6987 58.9923 55.1084 58.1987 54.6346C57.867 54.4363 57.8106 54.4648 57.8019 54.8491C57.756 56.9098 57.7116 58.9705 57.6688 61.0311C57.6679 61.1101 57.6692 61.1891 57.6692 61.3206ZM55.4247 54.5251C55.3869 54.5192 55.3485 54.5173 55.3103 54.5194C55.2703 54.5297 55.2317 54.5447 55.1954 54.5642C54.692 54.852 54.2272 55.1894 53.8461 55.6258C53.0086 56.5849 52.7183 57.6645 53.201 58.8658C53.6247 59.9218 54.4312 60.6611 55.4023 61.24C55.4504 61.2684 55.5126 61.2737 55.6096 61.3018C55.5624 59.0173 55.5507 56.7681 55.4247 54.5251ZM57.4473 72.2382C58.418 71.8417 59.4463 70.5606 59.4629 69.312C59.477 68.2495 58.4375 66.6778 57.5929 66.4624C57.4755 66.7262 57.342 72.0106 57.4473 72.2382ZM55.8762 72.241C55.8576 70.2964 55.817 68.3737 55.6938 66.4433C55.1249 66.8097 54.6414 67.2363 54.2674 67.7724C53.9112 68.2833 53.7732 68.8508 53.8171 69.4663C53.8938 70.541 54.9819 72.0407 55.8762 72.241ZM57.1716 80.813L57.2711 80.8395C57.6625 80.4161 58.0374 79.9752 58.2157 79.4171C58.4416 78.7116 58.0842 77.8352 57.4336 77.4293C57.3922 77.4037 57.337 77.4008 57.2512 77.3768C57.2243 78.5439 57.1977 79.6785 57.1716 80.813ZM56.0143 77.4069L55.9177 77.3662C55.7867 77.4883 55.6523 77.608 55.5255 77.7326C55.0391 78.2178 54.8662 78.791 55.0797 79.4448C55.2493 79.9622 55.5843 80.3876 55.9542 80.7845C55.9733 80.8053 56.0106 80.8097 56.1068 80.8492C56.0753 79.676 56.045 78.5407 56.0143 77.4069Z" fill="white"/>
<path d="M56.6811 25.7368C56.9593 25.8068 57.2479 25.8508 57.5141 25.9518C58.4143 26.2949 59.0483 26.9056 59.2216 27.8569C59.4107 28.9035 59.1337 29.8309 58.2343 30.492C57.4233 31.0884 56.5127 31.1694 55.5897 30.7969C54.6866 30.4305 54.1662 29.747 54.0261 28.7847C53.7893 27.1693 54.9876 25.9603 56.4431 25.7775C56.4824 25.7682 56.5205 25.7545 56.5567 25.7368H56.6811Z" fill="white"/>
<path d="M54.6188 35.2217C54.6279 35.3496 54.6408 35.4558 54.6424 35.5625C54.6615 36.6543 54.6795 37.7462 54.6963 38.8383C54.6963 38.8859 54.6964 38.9335 54.6997 38.9808C54.7279 39.3211 54.7308 39.3276 54.4057 39.4632C51.8722 40.5216 49.3719 39.3887 48.1956 37.3826C48.0654 37.1603 47.9978 36.8941 47.941 36.6408C47.8825 36.3779 47.9708 36.1324 48.1445 35.9211C48.1775 35.8867 48.2054 35.8479 48.2275 35.8059C48.2669 35.7102 48.2963 35.6105 48.3295 35.512C48.2291 35.4815 48.1305 35.4306 48.0284 35.4237C47.4587 35.3793 46.8699 35.4237 46.3218 35.293C44.5429 34.8749 43.4346 33.7412 43.0158 32.0058C42.8761 31.4273 42.9072 30.8094 42.8537 30.2101C42.8471 30.1324 42.7973 29.9911 42.777 29.9927C42.677 30.0013 42.546 30.0188 42.4867 30.0856C42.2417 30.3705 42.0306 30.6795 41.7856 30.9649C41.1901 31.6622 40.4554 32.204 39.7049 32.7259C37.9244 33.9647 36.0912 35.12 34.1432 36.0901C33.3554 36.4821 32.5485 36.835 31.6711 36.9856C30.8941 37.1188 30.1125 37.1806 29.3288 37.0109C28.9556 36.9295 28.6654 36.7292 28.4071 36.4621C28.2827 36.3323 28.3092 36.2419 28.4655 36.1694C28.9631 35.9386 29.4578 35.6984 29.9607 35.4774C31.5579 34.774 33.0946 33.9643 34.5392 33.0003C36.6274 31.6064 38.6902 30.1767 40.7697 28.769C41.8478 28.0387 42.9316 27.3162 44.0976 26.721C44.8183 26.3546 45.5903 26.1584 46.3873 26.0762C47.03 26.0098 47.6835 25.9614 48.3266 25.9984C49.3362 26.0571 50.3252 26.2712 51.0699 27.0125C51.8934 27.8328 52.3553 28.8171 52.2371 30.0009C52.1819 30.5549 51.8938 31.0117 51.5272 31.4175C51.1607 31.8234 50.7705 32.2077 50.4002 32.6103C50.3316 32.6897 50.2902 32.7882 50.2816 32.892C50.1917 34.2936 51.4348 35.4017 52.7836 35.4351C53.3286 35.4426 53.8723 35.3801 54.4007 35.249C54.4729 35.2363 54.5457 35.2272 54.6188 35.2217V35.2217Z" fill="white"/>
<path d="M58.6128 35.1967C58.8794 35.2517 59.0718 35.2949 59.2655 35.3311C60.0844 35.4837 60.8988 35.5411 61.6629 35.1214C62.5652 34.6256 63.0404 33.8778 62.9981 32.8466C62.9948 32.7652 62.9376 32.67 62.8783 32.6061C62.5097 32.2112 62.1257 31.8302 61.7587 31.432C60.9709 30.5727 60.8274 29.5912 61.2255 28.5218C61.7517 27.108 62.785 26.3028 64.2939 26.0646C65.0589 25.9466 65.838 25.9453 66.6034 26.0605C67.2005 26.1473 67.8109 26.2254 68.3769 26.4172C68.989 26.6241 69.5737 26.9023 70.1184 27.246C71.5883 28.1823 73.0279 29.1621 74.4746 30.1322C75.9611 31.1292 77.4311 32.1509 78.9288 33.1316C80.567 34.2051 82.3193 35.0754 84.1259 35.8424C84.3278 35.9279 84.5256 36.0248 84.7209 36.1245C85.0112 36.271 85.0149 36.3183 84.7898 36.5397C84.5074 36.8226 84.1354 37.0028 83.7349 37.0506C82.5237 37.2082 81.3598 37.0315 80.2341 36.5817C78.6033 35.9303 77.1151 35.0233 75.6394 34.0984C74.4473 33.3506 73.2436 32.6114 72.2007 31.6661C71.7326 31.2423 71.3507 30.727 70.9307 30.2523C70.8892 30.2063 70.8652 30.1395 70.8158 30.1102C70.7186 30.0598 70.6182 30.0154 70.5152 29.9775C70.4833 30.0638 70.4252 30.1497 70.4236 30.2364C70.4095 30.9749 70.4153 31.7166 70.1536 32.4233C69.554 34.0439 68.4026 35.0469 66.666 35.3649C66.3501 35.4231 66.0192 35.4056 65.6954 35.4198C65.5502 35.4259 65.4051 35.4105 65.2604 35.4272C65.1514 35.4398 65.0464 35.4878 64.9395 35.52C64.9809 35.6234 64.9992 35.7467 65.0684 35.8273C65.4001 36.2149 65.4234 36.6358 65.2276 37.0799C65.1406 37.2939 65.0314 37.4985 64.9017 37.6906C64.0629 38.8556 62.9326 39.6124 61.4938 39.8261C60.551 39.9647 59.5877 39.8178 58.7322 39.4048C58.6145 39.349 58.5539 39.2753 58.5573 39.1381C58.5783 38.2027 58.5958 37.267 58.6099 36.3313C58.6174 35.9706 58.6128 35.6124 58.6128 35.1967Z" fill="white"/>
<path d="M78.6779 38.4252C77.8557 38.4252 77.0944 38.2176 76.3684 37.8553C74.4017 36.875 72.6104 35.6387 70.917 34.2591C70.8855 34.233 70.8557 34.2041 70.8262 34.1756C70.4576 33.8227 70.4497 33.7364 70.6376 33.2735C70.8101 32.8477 70.9614 32.4129 71.1107 31.9786C71.1592 31.8361 71.2409 31.7787 71.3694 31.8459C71.541 31.9307 71.7028 32.0333 71.8521 32.152C73.1992 33.2751 74.5344 34.4113 75.9881 35.4046C77.1579 36.2041 78.3786 36.9108 79.6905 37.4604C79.8428 37.5235 79.9889 37.6001 80.1271 37.6892C80.3261 37.8186 80.3274 38.0209 80.1217 38.1439C79.9867 38.2246 79.8375 38.2798 79.6818 38.3067C79.3497 38.3608 79.013 38.3873 78.6779 38.4252Z" fill="white"/>
<path d="M34.5787 38.4382C34.2055 38.3849 33.8261 38.3319 33.4459 38.2753C33.3924 38.2672 33.3265 38.2591 33.2912 38.2253C33.1884 38.1268 33.0462 38.0258 33.0221 37.9057C33.0068 37.8284 33.1535 37.6802 33.2605 37.626C33.7622 37.3724 34.281 37.1506 34.7839 36.8986C36.501 36.0376 38.0443 34.9222 39.53 33.727C40.1934 33.1945 40.8319 32.6356 41.4892 32.0987C41.6181 31.9932 41.7769 31.9187 41.9303 31.8483C42.0444 31.7962 42.1207 31.8511 42.1642 31.9704C42.3466 32.472 42.5291 32.9739 42.7252 33.4705C42.8023 33.6659 42.7799 33.8369 42.634 33.9721C42.3396 34.2468 42.0427 34.522 41.7251 34.7699C40.4397 35.7746 39.0904 36.6934 37.65 37.4742C37.0479 37.7999 36.445 38.141 35.7612 38.2794C35.3789 38.3543 34.9859 38.3828 34.5787 38.4382Z" fill="white"/>
<path d="M38.1157 39.482C37.784 39.4352 37.4477 39.3982 37.1168 39.3392C36.8987 39.2984 36.844 39.1043 37.0102 38.9573C37.1317 38.8498 37.2797 38.7713 37.4174 38.6817C38.3528 38.0711 39.3215 37.5056 40.2138 36.8405C40.9862 36.2653 41.6721 35.5785 42.3965 34.941C42.581 34.7782 42.7671 34.6154 42.9521 34.4525C43.0429 34.3711 43.1258 34.3748 43.2237 34.4525C43.6155 34.7611 44.0148 35.0607 44.4062 35.3697C44.6189 35.5378 44.6351 35.6705 44.4357 35.8374C43.2204 36.8576 42.0365 37.9217 40.6413 38.711C39.8626 39.1511 39.0382 39.4666 38.1157 39.482Z" fill="white"/>
<path d="M75.1674 39.4809C74.2282 39.4671 73.3985 39.1349 72.6045 38.6948C71.6139 38.1457 70.7548 37.4207 69.8832 36.7136C69.5428 36.4376 69.2115 36.1506 68.8777 35.8672C68.65 35.6739 68.6521 35.5452 68.888 35.3608C69.2645 35.0665 69.6481 34.7807 70.0184 34.4795C70.1539 34.3688 70.2555 34.3802 70.3737 34.488C70.6917 34.7791 71.0201 35.058 71.3274 35.3592C72.6816 36.6712 74.203 37.761 75.8557 38.6798C75.9961 38.7519 76.1267 38.8409 76.2447 38.9448C76.2772 38.9806 76.3021 39.0224 76.318 39.0677C76.3338 39.1131 76.3401 39.1612 76.3367 39.209C76.3313 39.2611 76.2177 39.3311 76.1443 39.3421C75.8217 39.3979 75.4942 39.4361 75.1674 39.4809Z" fill="white"/>
<path d="M42.172 40.0926C41.8921 40.0315 41.6628 40.0071 41.4539 39.9297C41.2018 39.8369 41.1814 39.6623 41.3801 39.482C42.036 38.89 42.7115 38.3181 43.3475 37.7067C43.8551 37.2182 44.3244 36.6926 44.793 36.1675C45.0103 35.9232 45.223 35.7807 45.575 35.8736C45.9727 35.9786 46.3815 36.0453 46.7883 36.1121C46.984 36.1447 47.0503 36.2587 46.9869 36.4097C46.8803 36.6629 46.7717 36.9295 46.6 37.14C45.6712 38.2762 44.5529 39.1913 43.1937 39.7938C42.8608 39.9436 42.488 40.003 42.172 40.0926Z" fill="white"/>
<path d="M71.0847 40.0803C70.8169 40.0111 70.4748 39.9672 70.1725 39.8361C68.7669 39.2304 67.6162 38.2924 66.6609 37.1237C66.4975 36.9238 66.3901 36.6706 66.2964 36.4272C66.221 36.231 66.2894 36.1565 66.4946 36.1174C66.947 36.0315 67.401 35.9545 67.8513 35.8568C68.0533 35.8137 68.2001 35.8686 68.3286 36.0144C68.6276 36.3519 68.9062 36.7101 69.2325 37.0203C70.0904 37.8345 70.9715 38.6275 71.8369 39.4355C71.9198 39.5169 72.0322 39.6672 72.0028 39.7404C71.965 39.8422 71.8191 39.9322 71.7001 39.9721C71.528 40.0303 71.3377 40.0392 71.0847 40.0803Z" fill="white"/>
</g>
</g>
<defs>
<clipPath id="clip0_373_3711">
<rect width="56.621" height="69.4894" fill="white" transform="translate(28.3301 25.7368)"/>
</clipPath>
</defs>
</svg>
