<svg width="164" height="45" viewBox="0 0 164 45" fill="none" xmlns="http://www.w3.org/2000/svg">
<g opacity="0.88">
<path opacity="0.88" d="M37.0374 3.76441C37.6633 3.85172 38.0523 4.49051 37.8426 5.08667L26.1859 38.2225C26.0451 38.6228 25.6669 38.8906 25.2426 38.8906H1.55288C0.825624 38.8906 0.341592 38.139 0.642485 37.4769L16.9108 1.67984C17.094 1.27662 17.5207 1.04198 17.9593 1.10317L37.0374 3.76441Z" fill="#00B5FF"/>
</g>
<path opacity="0.5" d="M58.4021 37.4502C58.6851 38.1101 58.201 38.8443 57.483 38.8443H51.4404C51.0405 38.8443 50.679 38.6059 50.5214 38.2384L45.7441 27.0972C45.4611 26.4374 45.9452 25.7032 46.6632 25.7032H52.7057C53.1057 25.7032 53.4672 25.9415 53.6248 26.3091L58.4021 37.4502Z" fill="#0096C3"/>
<g style="mix-blend-mode:screen" opacity="0.71">
<path d="M45.9341 15.9019C46.4733 16.0686 46.7678 16.6482 46.5846 17.1819L39.2653 38.5085C39.1331 38.8934 38.7809 39.1599 38.3745 39.1823L31.7772 39.5465C31.0686 39.5856 30.5459 38.8947 30.7762 38.2235L38.8401 14.723C39.0154 14.2119 39.5651 13.9326 40.0813 14.0922L45.9341 15.9019Z" fill="#00B5FF" fill-opacity="0.7"/>
</g>
<g clip-path="url(#clip0_374_6280)">
<path d="M21.9351 38.0002C21.9286 37.7132 21.9231 37.4262 21.9156 37.1392C21.902 36.6331 21.8877 36.1273 21.8727 35.6219C21.8566 35.0554 21.8405 34.489 21.8244 33.9226C21.8218 33.8985 21.8178 33.8746 21.8124 33.851C21.7717 33.8687 21.7361 33.8787 21.7064 33.8984C21.4691 34.0508 21.2519 34.2244 21.0907 34.4579C20.9677 34.633 20.9117 34.8452 20.9325 35.0569C20.9499 35.2556 20.9829 35.4523 21.0082 35.651C21.0138 35.6946 21.0158 35.7388 21.0198 35.7873C21.0046 35.7835 20.995 35.784 20.9906 35.7796C20.5347 35.3275 20.3974 34.6724 20.631 34.1362C20.7201 33.9317 20.8683 33.7675 21.0256 33.6121C21.1161 33.5228 21.2144 33.4412 21.3209 33.3455C21.2265 33.2722 21.1564 33.2167 21.0849 33.1629C20.8197 32.9633 20.5732 32.7455 20.3779 32.4765C20.1535 32.1672 20.0808 31.8189 20.0937 31.4458C20.1084 31.0262 20.2835 30.6749 20.5564 30.3627C20.6019 30.3106 20.643 30.2548 20.6903 30.2045C20.7303 30.1621 20.7348 30.133 20.6884 30.0876C20.502 29.9054 20.3128 29.7251 20.1384 29.5321C19.7477 29.0996 19.5141 28.5897 19.4295 28.0204C19.3357 27.3911 19.5221 26.8409 19.984 26.394C20.1773 26.206 20.3965 26.0419 20.6094 25.8739C20.7649 25.7511 20.7665 25.7597 20.6027 25.6475C20.183 25.3601 19.7855 25.049 19.4901 24.6299C19.1607 24.1628 19.027 23.6424 19.0744 23.0821C19.1214 22.5243 19.3932 22.0681 19.8008 21.688C19.9405 21.5577 20.0965 21.4444 20.2445 21.3228C20.273 21.2994 20.2991 21.273 20.3373 21.2379C20.2788 21.2019 20.2295 21.1676 20.1762 21.1398C19.7388 20.9085 19.3365 20.6308 18.9945 20.2749C18.7217 19.9902 18.5126 19.6716 18.439 19.2784C18.3381 18.7422 18.5074 18.2936 18.892 17.9134C19.1957 17.6129 19.5655 17.4705 19.9943 17.4514C20.236 17.4408 20.4723 17.4479 20.7014 17.5214C20.8018 17.5563 20.8968 17.6046 20.9837 17.6651C21.0736 17.725 21.0991 17.8088 21.0411 17.9001C20.9731 18.0075 20.8903 18.1136 20.7907 18.1918C20.6752 18.2822 20.5426 18.3702 20.4029 18.4091C20.0393 18.5103 19.6856 18.4986 19.3948 18.2109C19.365 18.1813 19.3304 18.1565 19.2821 18.116C19.2614 18.1646 19.2337 18.2019 19.231 18.2408C19.2036 18.6622 19.2705 19.0595 19.549 19.4007C19.6771 19.5568 19.8293 19.6922 20.0001 19.802C20.3522 20.0305 20.7428 20.1735 21.1403 20.3018C21.2513 20.3375 21.3641 20.3677 21.4965 20.4067C21.4375 18.0213 21.3791 15.6537 21.3203 13.2753H22.6768C22.6193 15.6468 22.5616 18.0168 22.5034 20.4103C22.6696 20.3594 22.8144 20.3174 22.9575 20.2708C23.3602 20.1393 23.7514 19.9823 24.0962 19.733C24.4319 19.4899 24.6697 19.1778 24.7442 18.7694C24.7754 18.5975 24.7664 18.418 24.7693 18.2418C24.7693 18.2046 24.7422 18.1669 24.7229 18.1176C24.682 18.148 24.6507 18.1642 24.6285 18.1888C24.3976 18.4429 24.0979 18.4961 23.7765 18.4535C23.4303 18.4078 23.1716 18.2123 22.971 17.9406C22.8916 17.8327 22.9159 17.735 23.024 17.6526C23.1617 17.548 23.3241 17.5012 23.4912 17.4764C23.8703 17.4197 24.2471 17.4265 24.6037 17.5831C25.1221 17.8107 25.4661 18.196 25.5655 18.7473C25.656 19.2495 25.484 19.6963 25.1663 20.0928C24.8178 20.5275 24.3668 20.8363 23.884 21.107C23.8126 21.1471 23.7419 21.188 23.6539 21.2382C23.7345 21.3029 23.798 21.3574 23.865 21.4079C24.2051 21.664 24.5002 21.9596 24.699 22.3367C24.9977 22.9031 24.995 23.4874 24.7946 24.0812C24.648 24.516 24.3805 24.8698 24.025 25.1594C23.7983 25.344 23.5613 25.5166 23.3278 25.6931C23.2523 25.7502 23.2473 25.7564 23.3196 25.8142C23.4954 25.9566 23.6794 26.0893 23.8513 26.2364C24.2004 26.5357 24.4617 26.8912 24.5541 27.3487C24.6365 27.7582 24.5721 28.1544 24.4422 28.5443C24.2934 28.991 24.034 29.3706 23.7036 29.7059C23.5766 29.8348 23.4476 29.9617 23.3151 30.0855C23.2658 30.1314 23.2732 30.1603 23.3117 30.2087C23.4406 30.3702 23.5779 30.5275 23.6852 30.7022C24.0235 31.2524 23.9987 32.0799 23.5141 32.6185C23.2921 32.8654 23.0353 33.0709 22.773 33.2721C22.7503 33.2896 22.729 33.3092 22.6982 33.3353C22.771 33.4087 22.8386 33.4791 22.9086 33.5468C23.087 33.7192 23.2678 33.8931 23.3631 34.1245C23.5682 34.6225 23.5057 35.0974 23.2035 35.5425C23.1437 35.6306 23.0731 35.7117 23.0074 35.7956L22.9763 35.7824C22.9924 35.6701 23.0074 35.5577 23.0246 35.4457C23.0614 35.2165 23.0997 34.987 23.0424 34.7562C22.9734 34.4796 22.7912 34.2776 22.5751 34.1017C22.4756 34.0218 22.3716 33.9473 22.2637 33.8785C22.1993 33.8366 22.178 33.8502 22.1751 33.9239C22.159 34.3451 22.1389 34.7663 22.1277 35.1877C22.1078 35.9412 22.0931 36.6949 22.0762 37.4485C22.072 37.6326 22.0679 37.8167 22.0638 38.001L21.9351 38.0002ZM22.3995 24.826C22.4519 24.8034 22.4898 24.7928 22.5212 24.7725C22.7583 24.62 22.975 24.4451 23.1424 24.2175C23.424 23.8342 23.5104 23.4211 23.3196 22.9754C23.177 22.6416 22.9136 22.4123 22.6053 22.2282C22.4764 22.1511 22.4545 22.1622 22.4511 22.3115C22.4333 23.1122 22.416 23.9129 22.3994 24.7135C22.399 24.7442 22.3995 24.7749 22.3995 24.826ZM21.5274 22.1856C21.5127 22.1833 21.4978 22.1826 21.483 22.1834C21.4674 22.1874 21.4525 22.1933 21.4384 22.2008C21.2428 22.3126 21.0622 22.4438 20.9141 22.6133C20.5887 22.986 20.4759 23.4054 20.6634 23.8722C20.8281 24.2825 21.1414 24.5697 21.5187 24.7947C21.5374 24.8057 21.5616 24.8078 21.5993 24.8187C21.5809 23.9311 21.5764 23.0571 21.5274 22.1856ZM22.3133 29.068C22.6905 28.914 23.09 28.4162 23.0965 27.9311C23.102 27.5182 22.6981 26.9075 22.3699 26.8239C22.3243 26.9264 22.2724 28.9796 22.3133 29.068ZM21.7029 29.0691C21.6956 28.3135 21.6799 27.5665 21.632 26.8164C21.411 26.9588 21.2231 27.1245 21.0778 27.3329C20.9394 27.5314 20.8857 27.7519 20.9028 27.991C20.9326 28.4086 21.3554 28.9913 21.7029 29.0691ZM22.2062 32.3998L22.2449 32.41C22.397 32.2455 22.5426 32.0742 22.6119 31.8574C22.6997 31.5833 22.5608 31.2427 22.308 31.085C22.2919 31.0751 22.2705 31.074 22.2371 31.0646C22.2267 31.5181 22.2164 31.9589 22.2062 32.3998ZM21.7565 31.0763L21.719 31.0605C21.6681 31.108 21.6159 31.1545 21.5666 31.2029C21.3776 31.3914 21.3104 31.6141 21.3934 31.8681C21.4593 32.0692 21.5895 32.2345 21.7332 32.3887C21.7406 32.3967 21.7551 32.3985 21.7925 32.4138C21.7802 31.958 21.7685 31.5168 21.7565 31.0763Z" fill="white"/>
<path d="M22.0157 11C22.1238 11.0272 22.2359 11.0443 22.3393 11.0835C22.6891 11.2169 22.9354 11.4541 23.0028 11.8238C23.0762 12.2304 22.9686 12.5907 22.6192 12.8476C22.304 13.0793 21.9502 13.1108 21.5916 12.9661C21.2407 12.8237 21.0385 12.5582 20.9841 12.1842C20.8921 11.5566 21.3577 11.0868 21.9232 11.0158C21.9384 11.0122 21.9533 11.0069 21.9673 11H22.0157Z" fill="white"/>
<path d="M21.2144 14.6854C21.2179 14.7351 21.2229 14.7764 21.2236 14.8178C21.231 15.242 21.238 15.6663 21.2445 16.0906C21.2445 16.1091 21.2445 16.1276 21.2458 16.146C21.2568 16.2782 21.2579 16.2807 21.1316 16.3334C20.1472 16.7446 19.1757 16.3045 18.7186 15.525C18.668 15.4386 18.6418 15.3352 18.6197 15.2368C18.597 15.1346 18.6313 15.0392 18.6988 14.9571C18.7116 14.9438 18.7225 14.9287 18.731 14.9124C18.7463 14.8752 18.7578 14.8365 18.7707 14.7982C18.7317 14.7863 18.6933 14.7665 18.6537 14.7639C18.4323 14.7466 18.2036 14.7639 17.9906 14.7131C17.2994 14.5506 16.8688 14.1101 16.7061 13.4358C16.6518 13.2111 16.6638 12.971 16.6431 12.7381C16.6405 12.7079 16.6211 12.6531 16.6133 12.6537C16.5744 12.657 16.5235 12.6638 16.5005 12.6897C16.4053 12.8005 16.3233 12.9205 16.228 13.0314C15.9967 13.3023 15.7112 13.5129 15.4196 13.7157C14.7278 14.197 14.0155 14.6459 13.2586 15.0228C12.9525 15.1751 12.639 15.3122 12.2981 15.3708C11.9962 15.4225 11.6925 15.4465 11.388 15.3806C11.243 15.3489 11.1302 15.2711 11.0298 15.1674C10.9815 15.1169 10.9918 15.0818 11.0526 15.0536C11.2459 14.9639 11.4381 14.8706 11.6335 14.7847C12.2541 14.5114 12.8512 14.1968 13.4125 13.8223C14.2238 13.2807 15.0254 12.7252 15.8333 12.1782C16.2522 11.8945 16.6733 11.6137 17.1264 11.3825C17.4064 11.2401 17.7064 11.1639 18.016 11.1319C18.2658 11.1061 18.5197 11.0873 18.7695 11.1017C19.1618 11.1245 19.5461 11.2077 19.8354 11.4957C20.1554 11.8144 20.3349 12.1969 20.289 12.6568C20.2675 12.8721 20.1556 13.0496 20.0131 13.2073C19.8707 13.365 19.7191 13.5143 19.5753 13.6707C19.5486 13.7016 19.5325 13.7399 19.5292 13.7802C19.4942 14.3248 19.9772 14.7553 20.5013 14.7683C20.7131 14.7712 20.9243 14.7469 21.1296 14.696C21.1577 14.691 21.186 14.6875 21.2144 14.6854Z" fill="white"/>
<path d="M22.7663 14.6757C22.8699 14.697 22.9447 14.7138 23.0199 14.7278C23.3381 14.7872 23.6545 14.8095 23.9515 14.6464C24.302 14.4537 24.4867 14.1632 24.4702 13.7625C24.4689 13.7309 24.4467 13.6939 24.4237 13.669C24.2804 13.5156 24.1313 13.3676 23.9887 13.2129C23.6826 12.879 23.6268 12.4976 23.7815 12.0821C23.9859 11.5328 24.3874 11.2199 24.9737 11.1274C25.271 11.0815 25.5736 11.081 25.8711 11.1258C26.1031 11.1595 26.3402 11.1899 26.5601 11.2643C26.798 11.3447 27.0252 11.4529 27.2368 11.5864C27.8079 11.9502 28.3673 12.3309 28.9294 12.7078C29.507 13.0952 30.0781 13.4922 30.6601 13.8732C31.2966 14.2903 31.9775 14.6285 32.6794 14.9265C32.7579 14.9597 32.8347 14.9974 32.9106 15.0361C33.0234 15.0931 33.0248 15.1114 32.9373 15.1975C32.8276 15.3074 32.6831 15.3774 32.5275 15.396C32.0569 15.4572 31.6046 15.3885 31.1672 15.2138C30.5336 14.9607 29.9554 14.6083 29.382 14.2489C28.9188 13.9583 28.4511 13.6711 28.0459 13.3038C27.864 13.1392 27.7156 12.9389 27.5524 12.7545C27.5363 12.7366 27.527 12.7107 27.5078 12.6993C27.47 12.6797 27.431 12.6625 27.391 12.6477C27.3786 12.6813 27.356 12.7146 27.3554 12.7483C27.3499 13.0352 27.3522 13.3234 27.2505 13.598C27.0175 14.2277 26.5701 14.6174 25.8954 14.741C25.7726 14.7636 25.6441 14.7568 25.5182 14.7623C25.4619 14.7647 25.4055 14.7587 25.3492 14.7652C25.3069 14.7701 25.2661 14.7887 25.2245 14.8012C25.2407 14.8414 25.2477 14.8893 25.2746 14.9207C25.4035 15.0712 25.4126 15.2348 25.3365 15.4074C25.3027 15.4905 25.2603 15.57 25.2099 15.6446C24.884 16.0973 24.4448 16.3913 23.8857 16.4744C23.5194 16.5282 23.1451 16.4711 22.8127 16.3107C22.767 16.289 22.7435 16.2604 22.7447 16.2071C22.7529 15.8436 22.7597 15.4801 22.7652 15.1165C22.7681 14.9763 22.7663 14.8371 22.7663 14.6757Z" fill="white"/>
<path d="M30.5627 15.9301C30.2433 15.9301 29.9475 15.8495 29.6654 15.7087C28.9012 15.3278 28.2052 14.8475 27.5473 14.3114C27.535 14.3013 27.5234 14.2901 27.512 14.279C27.3687 14.1418 27.3657 14.1083 27.4387 13.9285C27.5057 13.763 27.5645 13.5941 27.6225 13.4253C27.6413 13.37 27.6731 13.3477 27.723 13.3738C27.7897 13.4067 27.8525 13.4466 27.9106 13.4927C28.434 13.9291 28.9528 14.3706 29.5176 14.7565C29.9721 15.0672 30.4464 15.3417 30.9562 15.5553C31.0153 15.5798 31.0721 15.6096 31.1258 15.6442C31.2031 15.6945 31.2036 15.7731 31.1237 15.8208C31.0713 15.8522 31.0133 15.8737 30.9528 15.8841C30.8237 15.9052 30.6929 15.9154 30.5627 15.9301Z" fill="white"/>
<path d="M13.428 15.9351C13.283 15.9144 13.1355 15.8938 12.9878 15.8718C12.967 15.8687 12.9414 15.8655 12.9277 15.8524C12.8878 15.8141 12.8325 15.7749 12.8232 15.7282C12.8172 15.6982 12.8742 15.6406 12.9158 15.6196C13.1107 15.521 13.3123 15.4348 13.5077 15.3369C14.1749 15.0024 14.7745 14.569 15.3518 14.1046C15.6095 13.8977 15.8577 13.6805 16.113 13.4719C16.1631 13.4309 16.2248 13.402 16.2844 13.3746C16.3287 13.3544 16.3584 13.3757 16.3753 13.4221C16.4462 13.6169 16.5171 13.812 16.5933 14.0049C16.6232 14.0809 16.6145 14.1473 16.5578 14.1998C16.4434 14.3066 16.3281 14.4135 16.2047 14.5098C15.7052 14.9002 15.181 15.2572 14.6213 15.5606C14.3874 15.6871 14.1531 15.8196 13.8874 15.8734C13.7389 15.9025 13.5862 15.9136 13.428 15.9351Z" fill="white"/>
<path d="M14.8023 16.3406C14.6734 16.3224 14.5427 16.308 14.4142 16.2851C14.3294 16.2693 14.3082 16.1938 14.3728 16.1367C14.42 16.095 14.4775 16.0645 14.531 16.0297C14.8944 15.7924 15.2708 15.5727 15.6175 15.3143C15.9176 15.0908 16.1841 14.8239 16.4656 14.5762C16.5373 14.513 16.6096 14.4497 16.6815 14.3864C16.7167 14.3548 16.749 14.3562 16.787 14.3864C16.9392 14.5063 17.0944 14.6227 17.2465 14.7428C17.3291 14.8081 17.3354 14.8597 17.2579 14.9245C16.7857 15.3209 16.3257 15.7344 15.7836 16.0411C15.481 16.212 15.1608 16.3346 14.8023 16.3406Z" fill="white"/>
<path d="M29.1985 16.3402C28.8336 16.3349 28.5112 16.2058 28.2027 16.0348C27.8178 15.8214 27.484 15.5397 27.1454 15.265C27.0131 15.1577 26.8844 15.0462 26.7547 14.9361C26.6662 14.861 26.667 14.811 26.7587 14.7394C26.905 14.625 27.054 14.514 27.1979 14.3969C27.2506 14.3539 27.29 14.3583 27.3359 14.4002C27.4595 14.5133 27.5871 14.6217 27.7065 14.7387C28.2327 15.2485 28.8238 15.672 29.466 16.0289C29.5205 16.057 29.5713 16.0916 29.6171 16.1319C29.6297 16.1458 29.6394 16.1621 29.6456 16.1797C29.6517 16.1973 29.6542 16.216 29.6529 16.2346C29.6508 16.2548 29.6066 16.282 29.5781 16.2863C29.4528 16.308 29.3255 16.3228 29.1985 16.3402Z" fill="white"/>
<path d="M16.3783 16.578C16.2695 16.5543 16.1804 16.5448 16.0992 16.5147C16.0013 16.4787 15.9934 16.4108 16.0705 16.3407C16.3254 16.1107 16.5879 15.8885 16.835 15.6509C17.0322 15.4611 17.2146 15.2569 17.3966 15.0529C17.4811 14.958 17.5637 14.9026 17.7005 14.9387C17.855 14.9795 18.0138 15.0054 18.1719 15.0314C18.2479 15.044 18.2737 15.0883 18.2491 15.147C18.2077 15.2454 18.1655 15.349 18.0988 15.4308C17.7379 15.8722 17.3034 16.2278 16.7752 16.4619C16.6459 16.5201 16.501 16.5432 16.3783 16.578Z" fill="white"/>
<path d="M27.6123 16.5732C27.5082 16.5463 27.3753 16.5292 27.2578 16.4783C26.7116 16.2429 26.2646 15.8785 25.8934 15.4244C25.8299 15.3467 25.7882 15.2483 25.7518 15.1537C25.7224 15.0775 25.749 15.0486 25.8288 15.0334C26.0045 15 26.181 14.9701 26.3559 14.9321C26.4344 14.9154 26.4914 14.9367 26.5414 14.9933C26.6575 15.1245 26.7658 15.2637 26.8926 15.3842C27.2259 15.7005 27.5683 16.0087 27.9045 16.3226C27.9367 16.3543 27.9804 16.4126 27.969 16.4411C27.9543 16.4806 27.8976 16.5156 27.8513 16.5311C27.7845 16.5537 27.7105 16.5572 27.6123 16.5732Z" fill="white"/>
</g>
<path d="M81.375 5.53V16H79.275V8.695L76.59 16H74.76L72.075 8.725V16H69.96V5.53H72.525L75.705 13.405L78.825 5.53H81.375ZM85.6051 7.09V9.835H89.3551V11.455H85.6051V14.305H89.8051V16H83.4901V5.41H89.8051V7.09H85.6051ZM100.886 10.69C100.886 11.74 100.666 12.665 100.226 13.465C99.7859 14.265 99.1459 14.89 98.3059 15.34C97.4759 15.78 96.4859 16 95.3359 16H91.5709V5.41H95.3359C96.4859 5.41 97.4759 5.63 98.3059 6.07C99.1459 6.5 99.7859 7.115 100.226 7.915C100.666 8.705 100.886 9.63 100.886 10.69ZM95.1559 14.11C96.2959 14.11 97.1759 13.81 97.7959 13.21C98.4259 12.61 98.7409 11.77 98.7409 10.69C98.7409 9.6 98.4259 8.755 97.7959 8.155C97.1759 7.555 96.2959 7.255 95.1559 7.255H93.6859V14.11H95.1559ZM104.784 5.41V16H102.669V5.41H104.784ZM109.013 12.07V16H106.898V5.41H110.753C112.003 5.41 112.943 5.71 113.573 6.31C114.213 6.91 114.533 7.725 114.533 8.755C114.533 9.765 114.203 10.57 113.543 11.17C112.893 11.77 111.963 12.07 110.753 12.07H109.013ZM110.528 10.375C111.768 10.375 112.388 9.835 112.388 8.755C112.388 8.225 112.243 7.82 111.953 7.54C111.663 7.26 111.188 7.12 110.528 7.12H109.013V10.375H110.528ZM124.881 5.41V16H122.751V11.395H118.221V16H116.106V5.41H118.221V9.7H122.751V5.41H124.881ZM133.45 13.87H129.205L128.455 16H126.22L130.12 5.53H132.535L136.42 16H134.185L133.45 13.87ZM132.88 12.265L131.32 7.795L129.76 12.265H132.88ZM143.281 16L140.806 11.875H139.876V16H137.761V5.41H141.796C143.026 5.41 143.961 5.71 144.601 6.31C145.251 6.91 145.576 7.7 145.576 8.68C145.576 9.48 145.351 10.15 144.901 10.69C144.461 11.23 143.821 11.59 142.981 11.77L145.621 16H143.281ZM139.876 10.42H141.616C142.826 10.42 143.431 9.885 143.431 8.815C143.431 8.305 143.281 7.91 142.981 7.63C142.691 7.34 142.236 7.195 141.616 7.195H139.876V10.42ZM158.62 5.53V16H156.52V8.695L153.835 16H152.005L149.32 8.725V16H147.205V5.53H149.77L152.95 13.405L156.07 5.53H158.62ZM76.41 35.87H72.165L71.415 38H69.18L73.08 27.53H75.495L79.38 38H77.145L76.41 35.87ZM75.84 34.265L74.28 29.795L72.72 34.265H75.84ZM87.9965 35.105C87.9965 35.645 87.8615 36.145 87.5915 36.605C87.3215 37.055 86.9215 37.42 86.3915 37.7C85.8615 37.97 85.2165 38.105 84.4565 38.105C83.7065 38.105 83.0365 37.98 82.4465 37.73C81.8565 37.47 81.3815 37.1 81.0215 36.62C80.6715 36.14 80.4715 35.58 80.4215 34.94H82.6715C82.7215 35.37 82.8915 35.73 83.1815 36.02C83.4815 36.3 83.8765 36.44 84.3665 36.44C84.8065 36.44 85.1415 36.325 85.3715 36.095C85.6115 35.855 85.7315 35.55 85.7315 35.18C85.7315 34.85 85.6365 34.58 85.4465 34.37C85.2565 34.15 85.0165 33.975 84.7265 33.845C84.4365 33.715 84.0365 33.565 83.5265 33.395C82.8665 33.175 82.3265 32.96 81.9065 32.75C81.4865 32.53 81.1265 32.215 80.8265 31.805C80.5365 31.395 80.3915 30.86 80.3915 30.2C80.3915 29.29 80.7165 28.575 81.3665 28.055C82.0265 27.525 82.8965 27.26 83.9765 27.26C85.0965 27.26 85.9865 27.53 86.6465 28.07C87.3165 28.61 87.6965 29.33 87.7865 30.23H85.5065C85.4465 29.85 85.2865 29.54 85.0265 29.3C84.7665 29.05 84.4115 28.925 83.9615 28.925C83.5715 28.925 83.2565 29.03 83.0165 29.24C82.7765 29.44 82.6565 29.735 82.6565 30.125C82.6565 30.435 82.7465 30.695 82.9265 30.905C83.1165 31.105 83.3515 31.27 83.6315 31.4C83.9215 31.53 84.3115 31.675 84.8015 31.835C85.4815 32.075 86.0315 32.3 86.4515 32.51C86.8815 32.72 87.2465 33.035 87.5465 33.455C87.8465 33.875 87.9965 34.425 87.9965 35.105ZM97.0295 35.105C97.0295 35.645 96.8945 36.145 96.6245 36.605C96.3545 37.055 95.9545 37.42 95.4245 37.7C94.8945 37.97 94.2495 38.105 93.4895 38.105C92.7395 38.105 92.0695 37.98 91.4795 37.73C90.8895 37.47 90.4145 37.1 90.0545 36.62C89.7045 36.14 89.5045 35.58 89.4545 34.94H91.7045C91.7545 35.37 91.9245 35.73 92.2145 36.02C92.5145 36.3 92.9095 36.44 93.3995 36.44C93.8395 36.44 94.1745 36.325 94.4045 36.095C94.6445 35.855 94.7645 35.55 94.7645 35.18C94.7645 34.85 94.6695 34.58 94.4795 34.37C94.2895 34.15 94.0495 33.975 93.7595 33.845C93.4695 33.715 93.0695 33.565 92.5595 33.395C91.8995 33.175 91.3595 32.96 90.9395 32.75C90.5195 32.53 90.1595 32.215 89.8595 31.805C89.5695 31.395 89.4245 30.86 89.4245 30.2C89.4245 29.29 89.7495 28.575 90.3995 28.055C91.0595 27.525 91.9295 27.26 93.0095 27.26C94.1295 27.26 95.0195 27.53 95.6795 28.07C96.3495 28.61 96.7295 29.33 96.8195 30.23H94.5395C94.4795 29.85 94.3195 29.54 94.0595 29.3C93.7995 29.05 93.4445 28.925 92.9945 28.925C92.6045 28.925 92.2895 29.03 92.0495 29.24C91.8095 29.44 91.6895 29.735 91.6895 30.125C91.6895 30.435 91.7795 30.695 91.9595 30.905C92.1495 31.105 92.3845 31.27 92.6645 31.4C92.9545 31.53 93.3445 31.675 93.8345 31.835C94.5145 32.075 95.0645 32.3 95.4845 32.51C95.9145 32.72 96.2795 33.035 96.5795 33.455C96.8795 33.875 97.0295 34.425 97.0295 35.105ZM100.903 27.41V38H98.7875V27.41H100.903ZM110.291 35.105C110.291 35.645 110.156 36.145 109.886 36.605C109.616 37.055 109.216 37.42 108.686 37.7C108.156 37.97 107.511 38.105 106.751 38.105C106.001 38.105 105.331 37.98 104.741 37.73C104.151 37.47 103.676 37.1 103.316 36.62C102.966 36.14 102.766 35.58 102.716 34.94H104.966C105.016 35.37 105.186 35.73 105.476 36.02C105.776 36.3 106.171 36.44 106.661 36.44C107.101 36.44 107.436 36.325 107.666 36.095C107.906 35.855 108.026 35.55 108.026 35.18C108.026 34.85 107.931 34.58 107.741 34.37C107.551 34.15 107.311 33.975 107.021 33.845C106.731 33.715 106.331 33.565 105.821 33.395C105.161 33.175 104.621 32.96 104.201 32.75C103.781 32.53 103.421 32.215 103.121 31.805C102.831 31.395 102.686 30.86 102.686 30.2C102.686 29.29 103.011 28.575 103.661 28.055C104.321 27.525 105.191 27.26 106.271 27.26C107.391 27.26 108.281 27.53 108.941 28.07C109.611 28.61 109.991 29.33 110.081 30.23H107.801C107.741 29.85 107.581 29.54 107.321 29.3C107.061 29.05 106.706 28.925 106.256 28.925C105.866 28.925 105.551 29.03 105.311 29.24C105.071 29.44 104.951 29.735 104.951 30.125C104.951 30.435 105.041 30.695 105.221 30.905C105.411 31.105 105.646 31.27 105.926 31.4C106.216 31.53 106.606 31.675 107.096 31.835C107.776 32.075 108.326 32.3 108.746 32.51C109.176 32.72 109.541 33.035 109.841 33.455C110.141 33.875 110.291 34.425 110.291 35.105ZM119.249 27.41V29.09H116.324V38H114.209V29.09H111.299V27.41H119.249ZM127.063 35.87H122.818L122.068 38H119.833L123.733 27.53H126.148L130.033 38H127.798L127.063 35.87ZM126.493 34.265L124.933 29.795L123.373 34.265H126.493ZM140.345 38H138.23L133.49 30.8V38H131.375V27.41H133.49L138.23 34.67V27.41H140.345V38ZM149.658 27.41V29.09H146.733V38H144.618V29.09H141.708V27.41H149.658Z" fill="white"/>
<defs>
<clipPath id="clip0_374_6280">
<rect width="22" height="27" fill="white" transform="translate(11 11)"/>
</clipPath>
</defs>
</svg>
