<svg width="59" height="40" viewBox="0 0 59 40" fill="none" xmlns="http://www.w3.org/2000/svg">
<g opacity="0.88">
<path opacity="0.88" d="M37.0374 2.76441C37.6633 2.85172 38.0523 3.49051 37.8426 4.08667L26.1859 37.2225C26.0451 37.6228 25.6669 37.8906 25.2426 37.8906H1.55288C0.825624 37.8906 0.341592 37.139 0.642485 36.4769L16.9108 0.679841C17.094 0.276624 17.5207 0.0419781 17.9593 0.103167L37.0374 2.76441Z" fill="white"/>
</g>
<path opacity="0.2" d="M58.4021 36.4501C58.6851 37.11 58.201 37.8442 57.483 37.8442H51.4405C51.0405 37.8442 50.679 37.6059 50.5214 37.2383L45.7441 26.0972C45.4611 25.4373 45.9452 24.7031 46.6632 24.7031H52.7058C53.1057 24.7031 53.4672 24.9414 53.6248 25.309L58.4021 36.4501Z" fill="white"/>
<g style="mix-blend-mode:screen" opacity="0.71">
<path d="M46.3907 15.2208C46.9223 15.4102 47.192 16.0017 46.9863 16.5272L38.7697 37.5244C38.6214 37.9034 38.2582 38.1547 37.8512 38.1599L31.2444 38.2441C30.5348 38.2532 30.0418 37.5407 30.3004 36.8798L39.353 13.7423C39.5499 13.2391 40.1109 12.9833 40.6199 13.1647L46.3907 15.2208Z" fill="white"/>
</g>
<g clip-path="url(#clip0_611_10206)">
<path d="M21.9351 37.0002C21.9286 36.7133 21.9231 36.4262 21.9156 36.1393C21.902 35.6332 21.8878 35.1274 21.8727 34.622C21.8566 34.0555 21.8405 33.4891 21.8244 32.9227C21.8218 32.8986 21.8178 32.8747 21.8125 32.8511C21.7717 32.8688 21.7361 32.8788 21.7064 32.8985C21.4691 33.0508 21.252 33.2245 21.0907 33.458C20.9677 33.6331 20.9117 33.8453 20.9325 34.057C20.9499 34.2556 20.9829 34.4524 21.0082 34.6511C21.0138 34.6947 21.0158 34.7389 21.0198 34.7874C21.0047 34.7836 20.995 34.7841 20.9906 34.7797C20.5347 34.3276 20.3974 33.6725 20.631 33.1363C20.7201 32.9317 20.8684 32.7676 21.0256 32.6122C21.1161 32.5229 21.2144 32.4412 21.3209 32.3456C21.2265 32.2723 21.1564 32.2168 21.0849 32.163C20.8197 31.9634 20.5732 31.7456 20.3779 31.4766C20.1535 31.1673 20.0809 30.819 20.0937 30.4459C20.1084 30.0263 20.2835 29.675 20.5564 29.3627C20.6019 29.3107 20.643 29.2549 20.6903 29.2046C20.7303 29.1622 20.7348 29.1331 20.6884 29.0877C20.502 28.9055 20.3129 28.7252 20.1384 28.5322C19.7477 28.0997 19.5141 27.5898 19.4295 27.0205C19.3357 26.3912 19.5221 25.841 19.984 25.394C20.1774 25.2061 20.3965 25.042 20.6095 24.874C20.7649 24.7512 20.7665 24.7598 20.6027 24.6476C20.183 24.3602 19.7855 24.0491 19.4901 23.6299C19.1608 23.1629 19.027 22.6425 19.0744 22.0822C19.1214 21.5244 19.3932 21.0682 19.8008 20.6881C19.9405 20.5578 20.0965 20.4445 20.2445 20.3229C20.2731 20.2995 20.2992 20.2731 20.3373 20.2379C20.2789 20.202 20.2296 20.1677 20.1762 20.1399C19.7388 19.9086 19.3365 19.6309 18.9945 19.275C18.7217 18.9903 18.5126 18.6717 18.439 18.2785C18.3381 17.7423 18.5075 17.2937 18.892 16.9135C19.1957 16.6129 19.5655 16.4706 19.9943 16.4515C20.236 16.4409 20.4723 16.448 20.7014 16.5215C20.8018 16.5564 20.8968 16.6047 20.9837 16.6651C21.0736 16.7251 21.0991 16.8089 21.0411 16.9002C20.9731 17.0076 20.8903 17.1137 20.7907 17.1919C20.6752 17.2823 20.5426 17.3703 20.4029 17.4092C20.0393 17.5104 19.6857 17.4987 19.3948 17.211C19.365 17.1814 19.3304 17.1566 19.2821 17.1161C19.2614 17.1647 19.2337 17.202 19.231 17.2409C19.2036 17.6623 19.2705 18.0596 19.549 18.4008C19.6771 18.5569 19.8293 18.6923 20.0001 18.8021C20.3522 19.0306 20.7429 19.1736 21.1403 19.3019C21.2513 19.3376 21.3641 19.3678 21.4965 19.4067C21.4376 17.0214 21.3791 14.6538 21.3203 12.2754H22.6768C22.6193 14.6469 22.5616 17.0169 22.5035 19.4104C22.6696 19.3595 22.8144 19.3175 22.9575 19.2709C23.3602 19.1394 23.7514 18.9824 24.0962 18.7331C24.4319 18.49 24.6697 18.1779 24.7442 17.7695C24.7754 17.5976 24.7664 17.418 24.7693 17.2418C24.7693 17.2047 24.7422 17.167 24.7229 17.1177C24.682 17.148 24.6507 17.1643 24.6285 17.1889C24.3976 17.443 24.098 17.4962 23.7765 17.4536C23.4303 17.4079 23.1716 17.2124 22.971 16.9407C22.8916 16.8328 22.9159 16.7351 23.024 16.6527C23.1618 16.5481 23.3242 16.5013 23.4912 16.4764C23.8703 16.4198 24.2471 16.4266 24.6037 16.5832C25.1221 16.8108 25.4661 17.1961 25.5655 17.7474C25.6561 18.2496 25.484 18.6964 25.1663 19.0929C24.8178 19.5276 24.3669 19.8363 23.884 20.1071C23.8126 20.1472 23.7419 20.1881 23.6539 20.2383C23.7345 20.303 23.798 20.3575 23.865 20.408C24.2051 20.6641 24.5003 20.9597 24.6991 21.3368C24.9978 21.9032 24.995 22.4875 24.7946 23.0812C24.648 23.5161 24.3805 23.8699 24.025 24.1595C23.7983 24.3441 23.5613 24.5167 23.3279 24.6932C23.2523 24.7503 23.2473 24.7564 23.3196 24.8143C23.4954 24.9567 23.6794 25.0894 23.8513 25.2365C24.2004 25.5358 24.4617 25.8913 24.5541 26.3488C24.6365 26.7583 24.5721 27.1545 24.4423 27.5444C24.2934 27.9911 24.034 28.3707 23.7036 28.706C23.5766 28.8349 23.4476 28.9618 23.3151 29.0856C23.2658 29.1315 23.2732 29.1604 23.3117 29.2088C23.4406 29.3703 23.5779 29.5276 23.6852 29.7023C24.0235 30.2525 23.9987 31.08 23.5141 31.6186C23.2921 31.8655 23.0353 32.071 22.773 32.2722C22.7503 32.2897 22.729 32.3093 22.6982 32.3354C22.7711 32.4088 22.8386 32.4792 22.9086 32.5469C23.087 32.7193 23.2678 32.8931 23.3631 33.1246C23.5682 33.6226 23.5057 34.0975 23.2035 34.5426C23.1437 34.6307 23.0731 34.7118 23.0074 34.7956L22.9763 34.7825C22.9924 34.6702 23.0074 34.5578 23.0246 34.4458C23.0614 34.2166 23.0997 33.9871 23.0424 33.7563C22.9734 33.4797 22.7912 33.2777 22.5752 33.1018C22.4756 33.0219 22.3716 32.9474 22.2637 32.8786C22.1993 32.8367 22.178 32.8503 22.1751 32.924C22.159 33.3452 22.1389 33.7664 22.1278 34.1878C22.1078 34.9413 22.0931 35.695 22.0762 36.4485C22.072 36.6327 22.0679 36.8168 22.0638 37.001L21.9351 37.0002ZM22.3995 23.8261C22.4519 23.8035 22.4898 23.7929 22.5212 23.7726C22.7583 23.6201 22.975 23.4452 23.1424 23.2176C23.424 22.8343 23.5104 22.4212 23.3196 21.9755C23.1771 21.6417 22.9136 21.4124 22.6053 21.2283C22.4764 21.1512 22.4545 21.1623 22.4511 21.3116C22.4333 22.1123 22.416 22.913 22.3994 23.7136C22.3991 23.7443 22.3995 23.775 22.3995 23.8261ZM21.5275 21.1857C21.5128 21.1834 21.4979 21.1827 21.483 21.1835C21.4675 21.1875 21.4525 21.1933 21.4384 21.2009C21.2428 21.3127 21.0622 21.4438 20.9141 21.6134C20.5887 21.9861 20.4759 22.4055 20.6634 22.8723C20.8281 23.2826 21.1414 23.5698 21.5188 23.7948C21.5374 23.8058 21.5616 23.8079 21.5993 23.8188C21.5809 22.9311 21.5764 22.0572 21.5275 21.1857ZM22.3133 28.0681C22.6905 27.914 23.0901 27.4163 23.0965 26.9312C23.102 26.5183 22.6981 25.9076 22.3699 25.824C22.3243 25.9264 22.2724 27.9797 22.3133 28.0681ZM21.7029 28.0692C21.6957 27.3136 21.6799 26.5666 21.632 25.8165C21.411 25.9589 21.2231 26.1246 21.0778 26.333C20.9394 26.5315 20.8858 26.752 20.9028 26.9911C20.9326 27.4087 21.3554 27.9914 21.7029 28.0692ZM22.2062 31.3998L22.2449 31.4101C22.397 31.2456 22.5426 31.0743 22.6119 30.8575C22.6997 30.5834 22.5608 30.2428 22.308 30.0851C22.2919 30.0752 22.2705 30.074 22.2371 30.0647C22.2267 30.5182 22.2164 30.959 22.2062 31.3998ZM21.7566 30.0764L21.719 30.0606C21.6681 30.1081 21.6159 30.1546 21.5666 30.203C21.3776 30.3915 21.3104 30.6142 21.3934 30.8682C21.4593 31.0693 21.5895 31.2346 21.7332 31.3888C21.7406 31.3968 21.7551 31.3986 21.7925 31.4139C21.7802 30.9581 21.7685 30.5169 21.7566 30.0764Z" fill="#00B5FF"/>
<path d="M22.0156 10C22.1238 10.0272 22.2359 10.0443 22.3393 10.0835C22.6891 10.2169 22.9354 10.4541 23.0028 10.8238C23.0762 11.2304 22.9686 11.5907 22.6192 11.8476C22.304 12.0793 21.9502 12.1108 21.5916 11.9661C21.2407 11.8237 21.0385 11.5582 20.9841 11.1842C20.8921 10.5566 21.3577 10.0868 21.9232 10.0158C21.9384 10.0122 21.9532 10.0069 21.9673 10H22.0156Z" fill="#00B5FF"/>
<path d="M21.2144 13.6854C21.2179 13.735 21.2229 13.7763 21.2236 13.8178C21.231 14.242 21.238 14.6663 21.2445 15.0906C21.2445 15.1091 21.2445 15.1276 21.2458 15.1459C21.2567 15.2782 21.2579 15.2807 21.1316 15.3334C20.1472 15.7446 19.1757 15.3044 18.7186 14.525C18.668 14.4386 18.6418 14.3351 18.6197 14.2368C18.597 14.1346 18.6313 14.0392 18.6988 13.9571C18.7116 13.9437 18.7225 13.9287 18.731 13.9124C18.7463 13.8752 18.7578 13.8364 18.7707 13.7982C18.7317 13.7863 18.6933 13.7665 18.6537 13.7638C18.4323 13.7466 18.2036 13.7638 17.9906 13.7131C17.2994 13.5506 16.8688 13.1101 16.706 12.4358C16.6518 12.2111 16.6638 11.9709 16.6431 11.7381C16.6405 11.7079 16.6211 11.653 16.6132 11.6537C16.5744 11.657 16.5235 11.6638 16.5005 11.6897C16.4053 11.8004 16.3232 11.9205 16.228 12.0314C15.9967 12.3023 15.7112 12.5128 15.4196 12.7156C14.7278 13.1969 14.0155 13.6458 13.2586 14.0228C12.9525 14.1751 12.639 14.3122 12.2981 14.3707C11.9962 14.4225 11.6925 14.4465 11.388 14.3805C11.243 14.3489 11.1302 14.2711 11.0298 14.1673C10.9815 14.1169 10.9918 14.0818 11.0525 14.0536C11.2459 13.9639 11.4381 13.8706 11.6335 13.7847C12.2541 13.5114 12.8512 13.1968 13.4125 12.8222C14.2238 12.2806 15.0254 11.7251 15.8333 11.1782C16.2522 10.8944 16.6733 10.6137 17.1264 10.3824C17.4064 10.2401 17.7064 10.1638 18.016 10.1319C18.2657 10.1061 18.5197 10.0873 18.7695 10.1017C19.1618 10.1244 19.5461 10.2076 19.8354 10.4957C20.1554 10.8144 20.3349 11.1969 20.289 11.6568C20.2675 11.8721 20.1556 12.0496 20.0131 12.2073C19.8707 12.365 19.7191 12.5143 19.5752 12.6707C19.5486 12.7016 19.5325 12.7398 19.5292 12.7802C19.4942 13.3247 19.9772 13.7553 20.5013 13.7683C20.7131 13.7712 20.9243 13.7469 21.1296 13.696C21.1577 13.691 21.186 13.6875 21.2144 13.6854Z" fill="#00B5FF"/>
<path d="M22.7663 13.6758C22.8699 13.6972 22.9447 13.714 23.0199 13.728C23.3381 13.7873 23.6545 13.8096 23.9514 13.6466C24.302 13.4539 24.4867 13.1634 24.4702 12.7627C24.4689 12.7311 24.4467 12.6941 24.4237 12.6692C24.2804 12.5158 24.1312 12.3677 23.9887 12.2131C23.6826 11.8792 23.6268 11.4978 23.7815 11.0823C23.9859 10.533 24.3874 10.2201 24.9737 10.1276C25.271 10.0817 25.5736 10.0812 25.8711 10.126C26.1031 10.1597 26.3402 10.19 26.5601 10.2645C26.798 10.3449 27.0252 10.453 27.2368 10.5866C27.8079 10.9504 28.3673 11.3311 28.9294 11.708C29.507 12.0954 30.0781 12.4924 30.6601 12.8734C31.2966 13.2905 31.9774 13.6287 32.6794 13.9267C32.7579 13.9599 32.8347 13.9976 32.9106 14.0363C33.0234 14.0933 33.0248 14.1116 32.9373 14.1976C32.8276 14.3076 32.6831 14.3776 32.5275 14.3962C32.0569 14.4574 31.6046 14.3887 31.1672 14.2139C30.5336 13.9609 29.9554 13.6085 29.382 13.2491C28.9188 12.9585 28.4511 12.6713 28.0459 12.304C27.864 12.1393 27.7156 11.9391 27.5524 11.7547C27.5363 11.7368 27.527 11.7109 27.5078 11.6995C27.47 11.6799 27.431 11.6626 27.391 11.6479C27.3786 11.6814 27.356 11.7148 27.3554 11.7485C27.3499 12.0354 27.3521 12.3236 27.2505 12.5982C27.0175 13.2279 26.5701 13.6176 25.8954 13.7412C25.7726 13.7638 25.6441 13.757 25.5182 13.7625C25.4619 13.7649 25.4055 13.7589 25.3492 13.7654C25.3069 13.7703 25.2661 13.7889 25.2245 13.8014C25.2406 13.8416 25.2477 13.8895 25.2746 13.9208C25.4035 14.0714 25.4126 14.235 25.3365 14.4075C25.3027 14.4907 25.2603 14.5702 25.2099 14.6448C24.884 15.0975 24.4448 15.3915 23.8857 15.4746C23.5194 15.5284 23.1451 15.4713 22.8127 15.3109C22.767 15.2892 22.7434 15.2606 22.7447 15.2073C22.7529 14.8438 22.7597 14.4802 22.7652 14.1167C22.7681 13.9765 22.7663 13.8373 22.7663 13.6758Z" fill="#00B5FF"/>
<path d="M30.5628 14.9301C30.2433 14.9301 29.9475 14.8494 29.6654 14.7086C28.9012 14.3277 28.2052 13.8474 27.5473 13.3113C27.535 13.3012 27.5234 13.29 27.512 13.2789C27.3688 13.1418 27.3657 13.1082 27.4387 12.9284C27.5057 12.7629 27.5645 12.594 27.6225 12.4252C27.6414 12.3699 27.6731 12.3476 27.723 12.3737C27.7897 12.4066 27.8526 12.4465 27.9106 12.4926C28.434 12.929 28.9528 13.3705 29.5176 13.7564C29.9721 14.0671 30.4464 14.3416 30.9562 14.5552C31.0154 14.5797 31.0721 14.6095 31.1258 14.6441C31.2032 14.6944 31.2037 14.773 31.1237 14.8208C31.0713 14.8521 31.0133 14.8736 30.9528 14.884C30.8238 14.9051 30.6929 14.9153 30.5628 14.9301Z" fill="#00B5FF"/>
<path d="M13.428 14.9353C13.283 14.9146 13.1355 14.894 12.9878 14.8721C12.967 14.8689 12.9414 14.8657 12.9277 14.8526C12.8878 14.8143 12.8325 14.7751 12.8232 14.7284C12.8172 14.6984 12.8742 14.6408 12.9158 14.6198C13.1107 14.5212 13.3123 14.435 13.5077 14.3371C14.1749 14.0026 14.7745 13.5692 15.3518 13.1048C15.6095 12.8979 15.8577 12.6807 16.113 12.4721C16.1631 12.4311 16.2248 12.4022 16.2844 12.3748C16.3287 12.3546 16.3584 12.3759 16.3753 12.4223C16.4462 12.6172 16.5171 12.8122 16.5933 13.0052C16.6232 13.0811 16.6145 13.1475 16.5578 13.2C16.4434 13.3068 16.3281 13.4137 16.2047 13.51C15.7052 13.9004 15.181 14.2574 14.6213 14.5608C14.3874 14.6873 14.1531 14.8199 13.8874 14.8736C13.7389 14.9027 13.5862 14.9138 13.428 14.9353Z" fill="#00B5FF"/>
<path d="M14.8023 15.3407C14.6734 15.3225 14.5428 15.3081 14.4142 15.2852C14.3294 15.2694 14.3082 15.1939 14.3728 15.1368C14.42 15.095 14.4775 15.0645 14.531 15.0297C14.8945 14.7925 15.2708 14.5728 15.6175 14.3143C15.9177 14.0908 16.1841 13.824 16.4656 13.5763C16.5373 13.513 16.6096 13.4497 16.6815 13.3865C16.7168 13.3548 16.749 13.3563 16.787 13.3865C16.9393 13.5064 17.0944 13.6228 17.2465 13.7428C17.3291 13.8082 17.3354 13.8597 17.2579 13.9246C16.7857 14.321 16.3258 14.7344 15.7836 15.0411C15.4811 15.2121 15.1608 15.3347 14.8023 15.3407Z" fill="#00B5FF"/>
<path d="M29.1985 15.3403C28.8336 15.3349 28.5113 15.2058 28.2027 15.0348C27.8178 14.8215 27.484 14.5398 27.1454 14.265C27.0131 14.1578 26.8844 14.0463 26.7547 13.9362C26.6662 13.861 26.667 13.8111 26.7587 13.7394C26.905 13.625 27.054 13.514 27.1979 13.397C27.2506 13.3539 27.29 13.3584 27.336 13.4003C27.4595 13.5134 27.5871 13.6217 27.7065 13.7388C28.2327 14.2486 28.8238 14.672 29.466 15.029C29.5205 15.057 29.5713 15.0916 29.6171 15.1319C29.6298 15.1458 29.6394 15.1621 29.6456 15.1797C29.6517 15.1973 29.6542 15.216 29.6529 15.2346C29.6508 15.2548 29.6066 15.2821 29.5781 15.2863C29.4528 15.308 29.3255 15.3229 29.1985 15.3403Z" fill="#00B5FF"/>
<path d="M16.3783 15.5781C16.2695 15.5544 16.1804 15.5449 16.0992 15.5149C16.0013 15.4788 15.9934 15.4109 16.0705 15.3409C16.3254 15.1109 16.5879 14.8887 16.835 14.6511C17.0322 14.4613 17.2146 14.2571 17.3966 14.053C17.4811 13.9581 17.5637 13.9028 17.7005 13.9388C17.855 13.9796 18.0139 14.0056 18.1719 14.0315C18.2479 14.0442 18.2737 14.0885 18.2491 14.1472C18.2077 14.2455 18.1655 14.3491 18.0988 14.4309C17.7379 14.8724 17.3034 15.2279 16.7752 15.462C16.6459 15.5202 16.501 15.5433 16.3783 15.5781Z" fill="#00B5FF"/>
<path d="M27.6123 15.5734C27.5082 15.5465 27.3753 15.5294 27.2578 15.4785C26.7117 15.2431 26.2646 14.8787 25.8934 14.4246C25.8299 14.3469 25.7882 14.2485 25.7518 14.1539C25.7225 14.0777 25.749 14.0487 25.8288 14.0335C26.0046 14.0002 26.181 13.9703 26.3559 13.9323C26.4344 13.9156 26.4914 13.9369 26.5414 13.9935C26.6575 14.1247 26.7658 14.2638 26.8926 14.3844C27.2259 14.7007 27.5683 15.0088 27.9045 15.3228C27.9367 15.3544 27.9804 15.4128 27.969 15.4413C27.9543 15.4808 27.8976 15.5158 27.8514 15.5313C27.7845 15.5539 27.7105 15.5574 27.6123 15.5734Z" fill="#00B5FF"/>
</g>
<defs>
<clipPath id="clip0_611_10206">
<rect width="22" height="27" fill="white" transform="translate(11 10)"/>
</clipPath>
</defs>
</svg>
