<svg width="247" height="40" viewBox="0 0 247 40" fill="none" xmlns="http://www.w3.org/2000/svg">
<g opacity="0.88">
<path opacity="0.88" d="M37.0374 2.76441C37.6633 2.85172 38.0523 3.49051 37.8426 4.08667L26.1859 37.2225C26.0451 37.6228 25.6669 37.8906 25.2426 37.8906H1.55288C0.825624 37.8906 0.341592 37.139 0.642485 36.4769L16.9108 0.679841C17.094 0.276624 17.5207 0.0419781 17.9593 0.103167L37.0374 2.76441Z" fill="#00B5FF"/>
</g>
<path opacity="0.5" d="M58.402 36.4501C58.685 37.11 58.201 37.8442 57.483 37.8442H51.4404C51.0404 37.8442 50.6789 37.6059 50.5213 37.2383L45.744 26.0972C45.4611 25.4373 45.9451 24.7031 46.6631 24.7031H52.7057C53.1056 24.7031 53.4671 24.9414 53.6248 25.309L58.402 36.4501Z" fill="#0096C3"/>
<g style="mix-blend-mode:screen" opacity="0.71">
<path d="M45.9342 14.902C46.4733 15.0687 46.7678 15.6482 46.5846 16.1819L39.2653 37.5085C39.1332 37.8935 38.781 38.1599 38.3746 38.1824L31.7773 38.5465C31.0687 38.5856 30.546 37.8948 30.7763 37.2235L38.8401 13.7231C39.0155 13.212 39.5652 12.9326 40.0814 13.0923L45.9342 14.902Z" fill="#00B5FF" fill-opacity="0.7"/>
</g>
<g clip-path="url(#clip0_374_7952)">
<path d="M21.9351 37.0002C21.9286 36.7133 21.9232 36.4262 21.9156 36.1393C21.9021 35.6332 21.8878 35.1274 21.8727 34.622C21.8566 34.0555 21.8405 33.4891 21.8244 32.9227C21.8218 32.8986 21.8179 32.8747 21.8125 32.8511C21.7717 32.8688 21.7361 32.8788 21.7065 32.8985C21.4692 33.0508 21.252 33.2245 21.0907 33.458C20.9678 33.6331 20.9117 33.8453 20.9325 34.057C20.9499 34.2556 20.9829 34.4524 21.0082 34.6511C21.0139 34.6947 21.0158 34.7389 21.0198 34.7874C21.0047 34.7836 20.995 34.7841 20.9907 34.7797C20.5347 34.3276 20.3975 33.6725 20.6311 33.1363C20.7202 32.9317 20.8684 32.7676 21.0256 32.6122C21.1162 32.5229 21.2144 32.4412 21.3209 32.3456C21.2265 32.2723 21.1564 32.2168 21.0849 32.163C20.8197 31.9634 20.5732 31.7456 20.378 31.4766C20.1535 31.1673 20.0809 30.819 20.0938 30.4459C20.1084 30.0263 20.2835 29.675 20.5565 29.3627C20.6019 29.3107 20.643 29.2549 20.6903 29.2046C20.7303 29.1622 20.7348 29.1331 20.6884 29.0877C20.502 28.9055 20.3129 28.7252 20.1384 28.5322C19.7477 28.0997 19.5141 27.5898 19.4295 27.0205C19.3357 26.3912 19.5221 25.841 19.984 25.394C20.1774 25.2061 20.3965 25.042 20.6095 24.874C20.7649 24.7512 20.7666 24.7598 20.6027 24.6476C20.183 24.3602 19.7856 24.0491 19.4901 23.6299C19.1608 23.1629 19.0271 22.6425 19.0744 22.0822C19.1215 21.5244 19.3933 21.0682 19.8009 20.6881C19.9405 20.5578 20.0965 20.4445 20.2446 20.3229C20.2731 20.2995 20.2992 20.2731 20.3374 20.2379C20.2789 20.202 20.2296 20.1677 20.1762 20.1399C19.7388 19.9086 19.3365 19.6309 18.9945 19.275C18.7218 18.9903 18.5126 18.6717 18.439 18.2785C18.3381 17.7423 18.5075 17.2937 18.892 16.9135C19.1957 16.6129 19.5655 16.4706 19.9944 16.4515C20.236 16.4409 20.4724 16.448 20.7015 16.5215C20.8019 16.5564 20.8969 16.6047 20.9837 16.6651C21.0736 16.7251 21.0991 16.8089 21.0411 16.9002C20.9731 17.0076 20.8903 17.1137 20.7907 17.1919C20.6752 17.2823 20.5426 17.3703 20.4029 17.4092C20.0393 17.5104 19.6857 17.4987 19.3949 17.211C19.3651 17.1814 19.3304 17.1566 19.2821 17.1161C19.2615 17.1647 19.2338 17.202 19.231 17.2409C19.2036 17.6623 19.2705 18.0596 19.549 18.4008C19.6771 18.5569 19.8293 18.6923 20.0002 18.8021C20.3522 19.0306 20.7429 19.1736 21.1403 19.3019C21.2513 19.3376 21.3641 19.3678 21.4965 19.4067C21.4376 17.0214 21.3791 14.6538 21.3203 12.2754H22.6768C22.6193 14.6469 22.5616 17.0169 22.5035 19.4104C22.6696 19.3595 22.8144 19.3175 22.9575 19.2709C23.3603 19.1394 23.7514 18.9824 24.0962 18.7331C24.432 18.49 24.6698 18.1779 24.7442 17.7695C24.7754 17.5976 24.7664 17.418 24.7693 17.2418C24.7693 17.2047 24.7423 17.167 24.7229 17.1177C24.682 17.148 24.6507 17.1643 24.6285 17.1889C24.3976 17.443 24.098 17.4962 23.7766 17.4536C23.4303 17.4079 23.1716 17.2124 22.971 16.9407C22.8916 16.8328 22.9159 16.7351 23.024 16.6527C23.1618 16.5481 23.3242 16.5013 23.4912 16.4764C23.8703 16.4198 24.2472 16.4266 24.6037 16.5832C25.1222 16.8108 25.4661 17.1961 25.5655 17.7474C25.6561 18.2496 25.484 18.6964 25.1663 19.0929C24.8178 19.5276 24.3669 19.8363 23.884 20.1071C23.8127 20.1472 23.7419 20.1881 23.654 20.2383C23.7345 20.303 23.798 20.3575 23.865 20.408C24.2051 20.6641 24.5003 20.9597 24.6991 21.3368C24.9978 21.9032 24.995 22.4875 24.7946 23.0812C24.648 23.5161 24.3806 23.8699 24.025 24.1595C23.7983 24.3441 23.5613 24.5167 23.3279 24.6932C23.2523 24.7503 23.2473 24.7564 23.3197 24.8143C23.4954 24.9567 23.6794 25.0894 23.8513 25.2365C24.2004 25.5358 24.4618 25.8913 24.5541 26.3488C24.6366 26.7583 24.5721 27.1545 24.4423 27.5444C24.2934 27.9911 24.034 28.3707 23.7036 28.706C23.5766 28.8349 23.4476 28.9618 23.3151 29.0856C23.2658 29.1315 23.2733 29.1604 23.3118 29.2088C23.4407 29.3703 23.5779 29.5276 23.6852 29.7023C24.0235 30.2525 23.9987 31.08 23.5141 31.6186C23.2921 31.8655 23.0353 32.071 22.773 32.2722C22.7503 32.2897 22.729 32.3093 22.6983 32.3354C22.7711 32.4088 22.8386 32.4792 22.9087 32.5469C23.087 32.7193 23.2678 32.8931 23.3632 33.1246C23.5683 33.6226 23.5057 34.0975 23.2035 34.5426C23.1437 34.6307 23.0732 34.7118 23.0074 34.7956L22.9763 34.7825C22.9924 34.6702 23.0074 34.5578 23.0247 34.4458C23.0614 34.2166 23.0997 33.9871 23.0424 33.7563C22.9734 33.4797 22.7912 33.2777 22.5752 33.1018C22.4756 33.0219 22.3716 32.9474 22.2637 32.8786C22.1993 32.8367 22.178 32.8503 22.1751 32.924C22.159 33.3452 22.1389 33.7664 22.1278 34.1878C22.1078 34.9413 22.0931 35.695 22.0762 36.4485C22.072 36.6327 22.0679 36.8168 22.0638 37.001L21.9351 37.0002ZM22.3996 23.8261C22.4519 23.8035 22.4898 23.7929 22.5212 23.7726C22.7584 23.6201 22.975 23.4452 23.1424 23.2176C23.4241 22.8343 23.5104 22.4212 23.3197 21.9755C23.1771 21.6417 22.9137 21.4124 22.6053 21.2283C22.4764 21.1512 22.4545 21.1623 22.4511 21.3116C22.4333 22.1123 22.416 22.913 22.3994 23.7136C22.3991 23.7443 22.3996 23.775 22.3996 23.8261ZM21.5275 21.1857C21.5128 21.1834 21.4979 21.1827 21.483 21.1835C21.4675 21.1875 21.4525 21.1933 21.4384 21.2009C21.2428 21.3127 21.0622 21.4438 20.9141 21.6134C20.5887 21.9861 20.4759 22.4055 20.6634 22.8723C20.8281 23.2826 21.1415 23.5698 21.5188 23.7948C21.5375 23.8058 21.5616 23.8079 21.5993 23.8188C21.581 22.9311 21.5765 22.0572 21.5275 21.1857ZM22.3134 28.0681C22.6905 27.914 23.0901 27.4163 23.0965 26.9312C23.102 26.5183 22.6981 25.9076 22.3699 25.824C22.3243 25.9264 22.2724 27.9797 22.3134 28.0681ZM21.7029 28.0692C21.6957 27.3136 21.6799 26.5666 21.632 25.8165C21.411 25.9589 21.2231 26.1246 21.0778 26.333C20.9394 26.5315 20.8858 26.752 20.9029 26.9911C20.9327 27.4087 21.3554 27.9914 21.7029 28.0692ZM22.2062 31.3998L22.2449 31.4101C22.397 31.2456 22.5426 31.0743 22.6119 30.8575C22.6997 30.5834 22.5608 30.2428 22.3081 30.0851C22.2919 30.0752 22.2705 30.074 22.2372 30.0647C22.2267 30.5182 22.2164 30.959 22.2062 31.3998ZM21.7566 30.0764L21.719 30.0606C21.6681 30.1081 21.6159 30.1546 21.5666 30.203C21.3776 30.3915 21.3105 30.6142 21.3934 30.8682C21.4593 31.0693 21.5895 31.2346 21.7332 31.3888C21.7406 31.3968 21.7551 31.3986 21.7925 31.4139C21.7803 30.9581 21.7685 30.5169 21.7566 30.0764Z" fill="white"/>
<path d="M22.0157 10C22.1238 10.0272 22.2359 10.0443 22.3393 10.0835C22.6891 10.2169 22.9354 10.4541 23.0028 10.8238C23.0762 11.2304 22.9686 11.5907 22.6192 11.8476C22.304 12.0793 21.9502 12.1108 21.5916 11.9661C21.2407 11.8237 21.0385 11.5582 20.9841 11.1842C20.8921 10.5566 21.3577 10.0868 21.9232 10.0158C21.9384 10.0122 21.9533 10.0069 21.9673 10H22.0157Z" fill="white"/>
<path d="M21.2143 13.6854C21.2178 13.735 21.2228 13.7763 21.2235 13.8178C21.2309 14.242 21.2379 14.6663 21.2444 15.0906C21.2444 15.1091 21.2444 15.1276 21.2457 15.1459C21.2567 15.2782 21.2578 15.2807 21.1315 15.3334C20.1471 15.7446 19.1756 15.3044 18.7185 14.525C18.668 14.4386 18.6417 14.3351 18.6196 14.2368C18.5969 14.1346 18.6312 14.0392 18.6987 13.9571C18.7115 13.9437 18.7224 13.9287 18.7309 13.9124C18.7463 13.8752 18.7577 13.8364 18.7706 13.7982C18.7316 13.7863 18.6932 13.7665 18.6536 13.7638C18.4322 13.7466 18.2035 13.7638 17.9905 13.7131C17.2993 13.5506 16.8687 13.1101 16.706 12.4358C16.6517 12.2111 16.6637 11.9709 16.643 11.7381C16.6404 11.7079 16.6211 11.653 16.6132 11.6537C16.5743 11.657 16.5234 11.6638 16.5004 11.6897C16.4052 11.8004 16.3232 11.9205 16.2279 12.0314C15.9966 12.3023 15.7111 12.5128 15.4195 12.7156C14.7277 13.1969 14.0154 13.6458 13.2585 14.0228C12.9524 14.1751 12.6389 14.3122 12.298 14.3707C11.9961 14.4225 11.6924 14.4465 11.3879 14.3805C11.2429 14.3489 11.1301 14.2711 11.0297 14.1673C10.9814 14.1169 10.9917 14.0818 11.0525 14.0536C11.2458 13.9639 11.438 13.8706 11.6334 13.7847C12.254 13.5114 12.8511 13.1968 13.4124 12.8222C14.2237 12.2806 15.0253 11.7251 15.8332 11.1782C16.2521 10.8944 16.6733 10.6137 17.1263 10.3824C17.4063 10.2401 17.7063 10.1638 18.0159 10.1319C18.2657 10.1061 18.5196 10.0873 18.7695 10.1017C19.1618 10.1244 19.546 10.2076 19.8354 10.4957C20.1553 10.8144 20.3348 11.1969 20.2889 11.6568C20.2674 11.8721 20.1555 12.0496 20.0131 12.2073C19.8706 12.365 19.719 12.5143 19.5752 12.6707C19.5485 12.7016 19.5324 12.7398 19.5291 12.7802C19.4941 13.3247 19.9771 13.7553 20.5012 13.7683C20.713 13.7712 20.9242 13.7469 21.1295 13.696C21.1576 13.691 21.1859 13.6875 21.2143 13.6854Z" fill="white"/>
<path d="M22.7663 13.6758C22.8699 13.6972 22.9446 13.714 23.0199 13.728C23.338 13.7873 23.6545 13.8096 23.9514 13.6466C24.302 13.4539 24.4866 13.1634 24.4702 12.7627C24.4689 12.7311 24.4466 12.6941 24.4236 12.6692C24.2804 12.5158 24.1312 12.3677 23.9886 12.2131C23.6825 11.8792 23.6268 11.4978 23.7814 11.0823C23.9859 10.533 24.3874 10.2201 24.9736 10.1276C25.2709 10.0817 25.5736 10.0812 25.871 10.126C26.103 10.1597 26.3402 10.19 26.5601 10.2645C26.7979 10.3449 27.0251 10.453 27.2367 10.5866C27.8079 10.9504 28.3672 11.3311 28.9294 11.708C29.5069 12.0954 30.0781 12.4924 30.66 12.8734C31.2965 13.2905 31.9774 13.6287 32.6793 13.9267C32.7578 13.9599 32.8347 13.9976 32.9105 14.0363C33.0233 14.0933 33.0248 14.1116 32.9373 14.1976C32.8276 14.3076 32.683 14.3776 32.5274 14.3962C32.0568 14.4574 31.6046 14.3887 31.1672 14.2139C30.5335 13.9609 29.9553 13.6085 29.3819 13.2491C28.9187 12.9585 28.451 12.6713 28.0458 12.304C27.8639 12.1393 27.7156 11.9391 27.5524 11.7547C27.5362 11.7368 27.5269 11.7109 27.5077 11.6995C27.4699 11.6799 27.4309 11.6626 27.3909 11.6479C27.3785 11.6814 27.356 11.7148 27.3553 11.7485C27.3498 12.0354 27.3521 12.3236 27.2504 12.5982C27.0175 13.2279 26.5701 13.6176 25.8953 13.7412C25.7726 13.7638 25.644 13.757 25.5182 13.7625C25.4618 13.7649 25.4054 13.7589 25.3492 13.7654C25.3068 13.7703 25.266 13.7889 25.2245 13.8014C25.2406 13.8416 25.2477 13.8895 25.2746 13.9208C25.4035 14.0714 25.4125 14.235 25.3365 14.4075C25.3026 14.4907 25.2602 14.5702 25.2098 14.6448C24.8839 15.0975 24.4447 15.3915 23.8857 15.4746C23.5194 15.5284 23.145 15.4713 22.8127 15.3109C22.7669 15.2892 22.7434 15.2606 22.7447 15.2073C22.7528 14.8438 22.7597 14.4802 22.7651 14.1167C22.768 13.9765 22.7663 13.8373 22.7663 13.6758Z" fill="white"/>
<path d="M30.5627 14.9301C30.2432 14.9301 29.9474 14.8494 29.6653 14.7086C28.9012 14.3277 28.2052 13.8474 27.5472 13.3113C27.5349 13.3012 27.5233 13.29 27.5119 13.2789C27.3687 13.1418 27.3656 13.1082 27.4386 12.9284C27.5056 12.7629 27.5644 12.594 27.6224 12.4252C27.6413 12.3699 27.673 12.3476 27.723 12.3737C27.7896 12.4066 27.8525 12.4465 27.9105 12.4926C28.4339 12.929 28.9527 13.3705 29.5176 13.7564C29.9721 14.0671 30.4464 14.3416 30.9561 14.5552C31.0153 14.5797 31.0721 14.6095 31.1258 14.6441C31.2031 14.6944 31.2036 14.773 31.1237 14.8208C31.0712 14.8521 31.0132 14.8736 30.9527 14.884C30.8237 14.9051 30.6929 14.9153 30.5627 14.9301Z" fill="white"/>
<path d="M13.4277 14.9353C13.2827 14.9146 13.1353 14.894 12.9876 14.8721C12.9668 14.8689 12.9412 14.8657 12.9275 14.8526C12.8875 14.8143 12.8323 14.7751 12.8229 14.7284C12.817 14.6984 12.874 14.6408 12.9156 14.6198C13.1105 14.5212 13.3121 14.435 13.5075 14.3371C14.1747 14.0026 14.7743 13.5692 15.3516 13.1048C15.6093 12.8979 15.8574 12.6807 16.1128 12.4721C16.1629 12.4311 16.2246 12.4022 16.2842 12.3748C16.3285 12.3546 16.3582 12.3759 16.3751 12.4223C16.446 12.6172 16.5169 12.8122 16.5931 13.0052C16.623 13.0811 16.6143 13.1475 16.5576 13.2C16.4432 13.3068 16.3279 13.4137 16.2045 13.51C15.705 13.9004 15.1808 14.2574 14.6211 14.5608C14.3872 14.6873 14.1529 14.8199 13.8872 14.8736C13.7387 14.9027 13.586 14.9138 13.4277 14.9353Z" fill="white"/>
<path d="M14.8022 15.3407C14.6733 15.3225 14.5427 15.3081 14.4141 15.2852C14.3294 15.2694 14.3081 15.1939 14.3727 15.1368C14.4199 15.095 14.4774 15.0645 14.5309 15.0297C14.8944 14.7925 15.2707 14.5728 15.6174 14.3143C15.9176 14.0908 16.1841 13.824 16.4655 13.5763C16.5372 13.513 16.6095 13.4497 16.6814 13.3865C16.7167 13.3548 16.7489 13.3563 16.7869 13.3865C16.9392 13.5064 17.0943 13.6228 17.2464 13.7428C17.3291 13.8082 17.3353 13.8597 17.2579 13.9246C16.7856 14.321 16.3257 14.7344 15.7835 15.0411C15.481 15.2121 15.1607 15.3347 14.8022 15.3407Z" fill="white"/>
<path d="M29.1984 15.3403C28.8335 15.3349 28.5111 15.2058 28.2026 15.0348C27.8177 14.8215 27.4839 14.5398 27.1452 14.265C27.0129 14.1578 26.8842 14.0463 26.7545 13.9362C26.6661 13.861 26.6669 13.8111 26.7585 13.7394C26.9048 13.625 27.0539 13.514 27.1977 13.397C27.2504 13.3539 27.2899 13.3584 27.3358 13.4003C27.4594 13.5134 27.587 13.6217 27.7063 13.7388C28.2325 14.2486 28.8236 14.672 29.4658 15.029C29.5204 15.057 29.5711 15.0916 29.6169 15.1319C29.6296 15.1458 29.6393 15.1621 29.6454 15.1797C29.6516 15.1973 29.654 15.216 29.6527 15.2346C29.6506 15.2548 29.6065 15.2821 29.578 15.2863C29.4526 15.308 29.3253 15.3229 29.1984 15.3403Z" fill="white"/>
<path d="M16.3781 15.5781C16.2693 15.5544 16.1802 15.5449 16.099 15.5149C16.0011 15.4788 15.9932 15.4109 16.0704 15.3409C16.3252 15.1109 16.5877 14.8887 16.8348 14.6511C17.032 14.4613 17.2144 14.2571 17.3965 14.053C17.4809 13.9581 17.5635 13.9028 17.7003 13.9388C17.8548 13.9796 18.0137 14.0056 18.1717 14.0315C18.2478 14.0442 18.2735 14.0885 18.2489 14.1472C18.2075 14.2455 18.1653 14.3491 18.0986 14.4309C17.7377 14.8724 17.3032 15.2279 16.7751 15.462C16.6457 15.5202 16.5008 15.5433 16.3781 15.5781Z" fill="white"/>
<path d="M27.6121 15.5734C27.508 15.5465 27.3751 15.5294 27.2576 15.4785C26.7115 15.2431 26.2644 14.8787 25.8932 14.4246C25.8297 14.3469 25.788 14.2485 25.7516 14.1539C25.7223 14.0777 25.7488 14.0487 25.8286 14.0335C26.0044 14.0002 26.1808 13.9703 26.3557 13.9323C26.4342 13.9156 26.4912 13.9369 26.5412 13.9935C26.6573 14.1247 26.7656 14.2638 26.8924 14.3844C27.2257 14.7007 27.5681 15.0088 27.9043 15.3228C27.9365 15.3544 27.9802 15.4128 27.9688 15.4413C27.9541 15.4808 27.8974 15.5158 27.8512 15.5313C27.7843 15.5539 27.7103 15.5574 27.6121 15.5734Z" fill="white"/>
</g>
<path d="M83.375 19.53V30H81.275V22.695L78.59 30H76.76L74.075 22.725V30H71.96V19.53H74.525L77.705 27.405L80.825 19.53H83.375ZM87.6051 21.09V23.835H91.3551V25.455H87.6051V28.305H91.8051V30H85.4901V19.41H91.8051V21.09H87.6051ZM102.886 24.69C102.886 25.74 102.666 26.665 102.226 27.465C101.786 28.265 101.146 28.89 100.306 29.34C99.4759 29.78 98.4859 30 97.3359 30H93.5709V19.41H97.3359C98.4859 19.41 99.4759 19.63 100.306 20.07C101.146 20.5 101.786 21.115 102.226 21.915C102.666 22.705 102.886 23.63 102.886 24.69ZM97.1559 28.11C98.2959 28.11 99.1759 27.81 99.7959 27.21C100.426 26.61 100.741 25.77 100.741 24.69C100.741 23.6 100.426 22.755 99.7959 22.155C99.1759 21.555 98.2959 21.255 97.1559 21.255H95.6859V28.11H97.1559ZM106.784 19.41V30H104.669V19.41H106.784ZM111.013 26.07V30H108.898V19.41H112.753C114.003 19.41 114.943 19.71 115.573 20.31C116.213 20.91 116.533 21.725 116.533 22.755C116.533 23.765 116.203 24.57 115.543 25.17C114.893 25.77 113.963 26.07 112.753 26.07H111.013ZM112.528 24.375C113.768 24.375 114.388 23.835 114.388 22.755C114.388 22.225 114.243 21.82 113.953 21.54C113.663 21.26 113.188 21.12 112.528 21.12H111.013V24.375H112.528ZM126.881 19.41V30H124.751V25.395H120.221V30H118.106V19.41H120.221V23.7H124.751V19.41H126.881ZM135.45 27.87H131.205L130.455 30H128.22L132.12 19.53H134.535L138.42 30H136.185L135.45 27.87ZM134.88 26.265L133.32 21.795L131.76 26.265H134.88ZM145.281 30L142.806 25.875H141.876V30H139.761V19.41H143.796C145.026 19.41 145.961 19.71 146.601 20.31C147.251 20.91 147.576 21.7 147.576 22.68C147.576 23.48 147.351 24.15 146.901 24.69C146.461 25.23 145.821 25.59 144.981 25.77L147.621 30H145.281ZM141.876 24.42H143.616C144.826 24.42 145.431 23.885 145.431 22.815C145.431 22.305 145.281 21.91 144.981 21.63C144.691 21.34 144.236 21.195 143.616 21.195H141.876V24.42ZM160.62 19.53V30H158.52V22.695L155.835 30H154.005L151.32 22.725V30H149.205V19.53H151.77L154.95 27.405L158.07 19.53H160.62ZM172.651 27.87H168.406L167.656 30H165.421L169.321 19.53H171.736L175.621 30H173.386L172.651 27.87ZM172.081 26.265L170.521 21.795L168.961 26.265H172.081ZM184.238 27.105C184.238 27.645 184.103 28.145 183.833 28.605C183.563 29.055 183.163 29.42 182.633 29.7C182.103 29.97 181.458 30.105 180.698 30.105C179.948 30.105 179.278 29.98 178.688 29.73C178.098 29.47 177.623 29.1 177.263 28.62C176.913 28.14 176.713 27.58 176.663 26.94H178.913C178.963 27.37 179.133 27.73 179.423 28.02C179.723 28.3 180.118 28.44 180.608 28.44C181.048 28.44 181.383 28.325 181.613 28.095C181.853 27.855 181.973 27.55 181.973 27.18C181.973 26.85 181.878 26.58 181.688 26.37C181.498 26.15 181.258 25.975 180.968 25.845C180.678 25.715 180.278 25.565 179.768 25.395C179.108 25.175 178.568 24.96 178.148 24.75C177.728 24.53 177.368 24.215 177.068 23.805C176.778 23.395 176.633 22.86 176.633 22.2C176.633 21.29 176.958 20.575 177.608 20.055C178.268 19.525 179.138 19.26 180.218 19.26C181.338 19.26 182.228 19.53 182.888 20.07C183.558 20.61 183.938 21.33 184.028 22.23H181.748C181.688 21.85 181.528 21.54 181.268 21.3C181.008 21.05 180.653 20.925 180.203 20.925C179.813 20.925 179.498 21.03 179.258 21.24C179.018 21.44 178.898 21.735 178.898 22.125C178.898 22.435 178.988 22.695 179.168 22.905C179.358 23.105 179.593 23.27 179.873 23.4C180.163 23.53 180.553 23.675 181.043 23.835C181.723 24.075 182.273 24.3 182.693 24.51C183.123 24.72 183.488 25.035 183.788 25.455C184.088 25.875 184.238 26.425 184.238 27.105ZM193.271 27.105C193.271 27.645 193.136 28.145 192.866 28.605C192.596 29.055 192.196 29.42 191.666 29.7C191.136 29.97 190.491 30.105 189.731 30.105C188.981 30.105 188.311 29.98 187.721 29.73C187.131 29.47 186.656 29.1 186.296 28.62C185.946 28.14 185.746 27.58 185.696 26.94H187.946C187.996 27.37 188.166 27.73 188.456 28.02C188.756 28.3 189.151 28.44 189.641 28.44C190.081 28.44 190.416 28.325 190.646 28.095C190.886 27.855 191.006 27.55 191.006 27.18C191.006 26.85 190.911 26.58 190.721 26.37C190.531 26.15 190.291 25.975 190.001 25.845C189.711 25.715 189.311 25.565 188.801 25.395C188.141 25.175 187.601 24.96 187.181 24.75C186.761 24.53 186.401 24.215 186.101 23.805C185.811 23.395 185.666 22.86 185.666 22.2C185.666 21.29 185.991 20.575 186.641 20.055C187.301 19.525 188.171 19.26 189.251 19.26C190.371 19.26 191.261 19.53 191.921 20.07C192.591 20.61 192.971 21.33 193.061 22.23H190.781C190.721 21.85 190.561 21.54 190.301 21.3C190.041 21.05 189.686 20.925 189.236 20.925C188.846 20.925 188.531 21.03 188.291 21.24C188.051 21.44 187.931 21.735 187.931 22.125C187.931 22.435 188.021 22.695 188.201 22.905C188.391 23.105 188.626 23.27 188.906 23.4C189.196 23.53 189.586 23.675 190.076 23.835C190.756 24.075 191.306 24.3 191.726 24.51C192.156 24.72 192.521 25.035 192.821 25.455C193.121 25.875 193.271 26.425 193.271 27.105ZM197.144 19.41V30H195.029V19.41H197.144ZM206.532 27.105C206.532 27.645 206.397 28.145 206.127 28.605C205.857 29.055 205.457 29.42 204.927 29.7C204.397 29.97 203.752 30.105 202.992 30.105C202.242 30.105 201.572 29.98 200.982 29.73C200.392 29.47 199.917 29.1 199.557 28.62C199.207 28.14 199.007 27.58 198.957 26.94H201.207C201.257 27.37 201.427 27.73 201.717 28.02C202.017 28.3 202.412 28.44 202.902 28.44C203.342 28.44 203.677 28.325 203.907 28.095C204.147 27.855 204.267 27.55 204.267 27.18C204.267 26.85 204.172 26.58 203.982 26.37C203.792 26.15 203.552 25.975 203.262 25.845C202.972 25.715 202.572 25.565 202.062 25.395C201.402 25.175 200.862 24.96 200.442 24.75C200.022 24.53 199.662 24.215 199.362 23.805C199.072 23.395 198.927 22.86 198.927 22.2C198.927 21.29 199.252 20.575 199.902 20.055C200.562 19.525 201.432 19.26 202.512 19.26C203.632 19.26 204.522 19.53 205.182 20.07C205.852 20.61 206.232 21.33 206.322 22.23H204.042C203.982 21.85 203.822 21.54 203.562 21.3C203.302 21.05 202.947 20.925 202.497 20.925C202.107 20.925 201.792 21.03 201.552 21.24C201.312 21.44 201.192 21.735 201.192 22.125C201.192 22.435 201.282 22.695 201.462 22.905C201.652 23.105 201.887 23.27 202.167 23.4C202.457 23.53 202.847 23.675 203.337 23.835C204.017 24.075 204.567 24.3 204.987 24.51C205.417 24.72 205.782 25.035 206.082 25.455C206.382 25.875 206.532 26.425 206.532 27.105ZM215.49 19.41V21.09H212.565V30H210.45V21.09H207.54V19.41H215.49ZM223.304 27.87H219.059L218.309 30H216.074L219.974 19.53H222.389L226.274 30H224.039L223.304 27.87ZM222.734 26.265L221.174 21.795L219.614 26.265H222.734ZM236.586 30H234.471L229.731 22.8V30H227.616V19.41H229.731L234.471 26.67V19.41H236.586V30ZM245.9 19.41V21.09H242.975V30H240.86V21.09H237.95V19.41H245.9Z" fill="#00B5FF"/>
<defs>
<clipPath id="clip0_374_7952">
<rect width="22" height="27" fill="white" transform="translate(11 10)"/>
</clipPath>
</defs>
</svg>
