<svg width="159" height="39" viewBox="0 0 159 39" fill="none" xmlns="http://www.w3.org/2000/svg">
<rect width="159" height="39" fill="black"/>
<g opacity="0.88">
<path opacity="0.88" d="M37.0374 2.76441C37.6633 2.85172 38.0523 3.49051 37.8426 4.08667L26.1859 37.2225C26.0451 37.6228 25.6669 37.8906 25.2426 37.8906H1.55288C0.825624 37.8906 0.341592 37.139 0.642485 36.4769L16.9108 0.679841C17.094 0.276624 17.5207 0.0419781 17.9593 0.103167L37.0374 2.76441Z" fill="#00B5FF"/>
</g>
<path opacity="0.5" d="M58.4021 36.4502C58.6851 37.1101 58.201 37.8443 57.483 37.8443H51.4404C51.0405 37.8443 50.679 37.6059 50.5214 37.2384L45.7441 26.0972C45.4611 25.4374 45.9452 24.7032 46.6632 24.7032H52.7057C53.1057 24.7032 53.4672 24.9415 53.6248 25.3091L58.4021 36.4502Z" fill="#0096C3"/>
<g style="mix-blend-mode:screen" opacity="0.71">
<path d="M45.9341 14.9019C46.4733 15.0686 46.7678 15.6482 46.5846 16.1819L39.2653 37.5085C39.1331 37.8934 38.7809 38.1599 38.3745 38.1823L31.7772 38.5465C31.0686 38.5856 30.5459 37.8947 30.7762 37.2235L38.8401 13.723C39.0154 13.2119 39.5651 12.9326 40.0813 13.0922L45.9341 14.9019Z" fill="#00B5FF" fill-opacity="0.7"/>
</g>
<g clip-path="url(#clip0_0_1)">
<path d="M21.9351 37.0002C21.9286 36.7132 21.9231 36.4262 21.9156 36.1392C21.902 35.6331 21.8877 35.1273 21.8727 34.6219C21.8566 34.0554 21.8405 33.489 21.8244 32.9226C21.8218 32.8985 21.8178 32.8746 21.8124 32.851C21.7717 32.8687 21.7361 32.8787 21.7064 32.8984C21.4691 33.0508 21.2519 33.2244 21.0907 33.4579C20.9677 33.633 20.9117 33.8452 20.9325 34.0569C20.9499 34.2556 20.9829 34.4523 21.0082 34.651C21.0138 34.6946 21.0158 34.7388 21.0198 34.7873C21.0046 34.7835 20.995 34.784 20.9906 34.7796C20.5347 34.3275 20.3974 33.6724 20.631 33.1362C20.7201 32.9317 20.8683 32.7675 21.0256 32.6121C21.1161 32.5228 21.2144 32.4412 21.3209 32.3455C21.2265 32.2722 21.1564 32.2167 21.0849 32.1629C20.8197 31.9633 20.5732 31.7455 20.3779 31.4765C20.1535 31.1672 20.0808 30.8189 20.0937 30.4458C20.1084 30.0262 20.2835 29.6749 20.5564 29.3627C20.6019 29.3106 20.643 29.2548 20.6903 29.2045C20.7303 29.1621 20.7348 29.133 20.6884 29.0876C20.502 28.9054 20.3128 28.7251 20.1384 28.5321C19.7477 28.0996 19.5141 27.5897 19.4295 27.0204C19.3357 26.3911 19.5221 25.8409 19.984 25.394C20.1773 25.206 20.3965 25.0419 20.6094 24.8739C20.7649 24.7511 20.7665 24.7597 20.6027 24.6475C20.183 24.3601 19.7855 24.049 19.4901 23.6299C19.1607 23.1628 19.027 22.6424 19.0744 22.0821C19.1214 21.5243 19.3932 21.0681 19.8008 20.688C19.9405 20.5577 20.0965 20.4444 20.2445 20.3228C20.273 20.2994 20.2991 20.273 20.3373 20.2379C20.2788 20.2019 20.2295 20.1676 20.1762 20.1398C19.7388 19.9085 19.3365 19.6308 18.9945 19.2749C18.7217 18.9902 18.5126 18.6716 18.439 18.2784C18.3381 17.7422 18.5074 17.2936 18.892 16.9134C19.1957 16.6129 19.5655 16.4705 19.9943 16.4514C20.236 16.4408 20.4723 16.4479 20.7014 16.5214C20.8018 16.5563 20.8968 16.6046 20.9837 16.6651C21.0736 16.725 21.0991 16.8088 21.0411 16.9001C20.9731 17.0075 20.8903 17.1136 20.7907 17.1918C20.6752 17.2822 20.5426 17.3702 20.4029 17.4091C20.0393 17.5103 19.6856 17.4986 19.3948 17.2109C19.365 17.1813 19.3304 17.1565 19.2821 17.116C19.2614 17.1646 19.2337 17.2019 19.231 17.2408C19.2036 17.6622 19.2705 18.0595 19.549 18.4007C19.6771 18.5568 19.8293 18.6922 20.0001 18.802C20.3522 19.0305 20.7428 19.1735 21.1403 19.3018C21.2513 19.3375 21.3641 19.3677 21.4965 19.4067C21.4375 17.0213 21.3791 14.6537 21.3203 12.2753H22.6768C22.6193 14.6468 22.5616 17.0168 22.5034 19.4103C22.6696 19.3594 22.8144 19.3174 22.9575 19.2708C23.3602 19.1393 23.7514 18.9823 24.0962 18.733C24.4319 18.4899 24.6697 18.1778 24.7442 17.7694C24.7754 17.5975 24.7664 17.418 24.7693 17.2418C24.7693 17.2046 24.7422 17.1669 24.7229 17.1176C24.682 17.148 24.6507 17.1642 24.6285 17.1888C24.3976 17.4429 24.0979 17.4961 23.7765 17.4535C23.4303 17.4078 23.1716 17.2123 22.971 16.9406C22.8916 16.8327 22.9159 16.735 23.024 16.6526C23.1617 16.548 23.3241 16.5012 23.4912 16.4764C23.8703 16.4197 24.2471 16.4265 24.6037 16.5831C25.1221 16.8107 25.4661 17.196 25.5655 17.7473C25.656 18.2495 25.484 18.6963 25.1663 19.0928C24.8178 19.5275 24.3668 19.8363 23.884 20.107C23.8126 20.1471 23.7419 20.188 23.6539 20.2382C23.7345 20.3029 23.798 20.3574 23.865 20.4079C24.2051 20.664 24.5002 20.9596 24.699 21.3367C24.9977 21.9031 24.995 22.4874 24.7946 23.0812C24.648 23.516 24.3805 23.8698 24.025 24.1594C23.7983 24.344 23.5613 24.5166 23.3278 24.6931C23.2523 24.7502 23.2473 24.7564 23.3196 24.8142C23.4954 24.9566 23.6794 25.0893 23.8513 25.2364C24.2004 25.5357 24.4617 25.8912 24.5541 26.3487C24.6365 26.7582 24.5721 27.1544 24.4422 27.5443C24.2934 27.991 24.034 28.3706 23.7036 28.7059C23.5766 28.8348 23.4476 28.9617 23.3151 29.0855C23.2658 29.1314 23.2732 29.1603 23.3117 29.2087C23.4406 29.3702 23.5779 29.5275 23.6852 29.7022C24.0235 30.2524 23.9987 31.0799 23.5141 31.6185C23.2921 31.8654 23.0353 32.0709 22.773 32.2721C22.7503 32.2896 22.729 32.3092 22.6982 32.3353C22.771 32.4087 22.8386 32.4791 22.9086 32.5468C23.087 32.7192 23.2678 32.8931 23.3631 33.1245C23.5682 33.6225 23.5057 34.0974 23.2035 34.5425C23.1437 34.6306 23.0731 34.7117 23.0074 34.7956L22.9763 34.7824C22.9924 34.6701 23.0074 34.5577 23.0246 34.4457C23.0614 34.2165 23.0997 33.987 23.0424 33.7562C22.9734 33.4796 22.7912 33.2776 22.5751 33.1017C22.4756 33.0218 22.3716 32.9473 22.2637 32.8785C22.1993 32.8366 22.178 32.8502 22.1751 32.9239C22.159 33.3451 22.1389 33.7663 22.1277 34.1877C22.1078 34.9412 22.0931 35.6949 22.0762 36.4485C22.072 36.6326 22.0679 36.8167 22.0638 37.001L21.9351 37.0002ZM22.3995 23.826C22.4519 23.8034 22.4898 23.7928 22.5212 23.7725C22.7583 23.62 22.975 23.4451 23.1424 23.2175C23.424 22.8342 23.5104 22.4211 23.3196 21.9754C23.177 21.6416 22.9136 21.4123 22.6053 21.2282C22.4764 21.1511 22.4545 21.1622 22.4511 21.3115C22.4333 22.1122 22.416 22.9129 22.3994 23.7135C22.399 23.7442 22.3995 23.7749 22.3995 23.826ZM21.5274 21.1856C21.5127 21.1833 21.4978 21.1826 21.483 21.1834C21.4674 21.1874 21.4525 21.1933 21.4384 21.2008C21.2428 21.3126 21.0622 21.4438 20.9141 21.6133C20.5887 21.986 20.4759 22.4054 20.6634 22.8722C20.8281 23.2825 21.1414 23.5697 21.5187 23.7947C21.5374 23.8057 21.5616 23.8078 21.5993 23.8187C21.5809 22.9311 21.5764 22.0571 21.5274 21.1856ZM22.3133 28.068C22.6905 27.914 23.09 27.4162 23.0965 26.9311C23.102 26.5182 22.6981 25.9075 22.3699 25.8239C22.3243 25.9264 22.2724 27.9796 22.3133 28.068ZM21.7029 28.0691C21.6956 27.3135 21.6799 26.5665 21.632 25.8164C21.411 25.9588 21.2231 26.1245 21.0778 26.3329C20.9394 26.5314 20.8857 26.7519 20.9028 26.991C20.9326 27.4086 21.3554 27.9913 21.7029 28.0691ZM22.2062 31.3998L22.2449 31.41C22.397 31.2455 22.5426 31.0742 22.6119 30.8574C22.6997 30.5833 22.5608 30.2427 22.308 30.085C22.2919 30.0751 22.2705 30.074 22.2371 30.0646C22.2267 30.5181 22.2164 30.9589 22.2062 31.3998ZM21.7565 30.0763L21.719 30.0605C21.6681 30.108 21.6159 30.1545 21.5666 30.2029C21.3776 30.3914 21.3104 30.6141 21.3934 30.8681C21.4593 31.0692 21.5895 31.2345 21.7332 31.3887C21.7406 31.3967 21.7551 31.3985 21.7925 31.4138C21.7802 30.958 21.7685 30.5168 21.7565 30.0763Z" fill="white"/>
<path d="M22.0157 10C22.1238 10.0272 22.2359 10.0443 22.3393 10.0835C22.6891 10.2169 22.9354 10.4541 23.0028 10.8238C23.0762 11.2304 22.9686 11.5907 22.6192 11.8476C22.304 12.0793 21.9502 12.1108 21.5916 11.9661C21.2407 11.8237 21.0385 11.5582 20.9841 11.1842C20.8921 10.5566 21.3577 10.0868 21.9232 10.0158C21.9384 10.0122 21.9533 10.0069 21.9673 10H22.0157Z" fill="white"/>
<path d="M21.2144 13.6854C21.2179 13.7351 21.2229 13.7764 21.2236 13.8178C21.231 14.242 21.238 14.6663 21.2445 15.0906C21.2445 15.1091 21.2445 15.1276 21.2458 15.146C21.2568 15.2782 21.2579 15.2807 21.1316 15.3334C20.1472 15.7446 19.1757 15.3045 18.7186 14.525C18.668 14.4386 18.6418 14.3352 18.6197 14.2368C18.597 14.1346 18.6313 14.0392 18.6988 13.9571C18.7116 13.9438 18.7225 13.9287 18.731 13.9124C18.7463 13.8752 18.7578 13.8365 18.7707 13.7982C18.7317 13.7863 18.6933 13.7665 18.6537 13.7639C18.4323 13.7466 18.2036 13.7639 17.9906 13.7131C17.2994 13.5506 16.8688 13.1101 16.7061 12.4358C16.6518 12.2111 16.6638 11.971 16.6431 11.7381C16.6405 11.7079 16.6211 11.6531 16.6133 11.6537C16.5744 11.657 16.5235 11.6638 16.5005 11.6897C16.4053 11.8005 16.3233 11.9205 16.228 12.0314C15.9967 12.3023 15.7112 12.5129 15.4196 12.7157C14.7278 13.197 14.0155 13.6459 13.2586 14.0228C12.9525 14.1751 12.639 14.3122 12.2981 14.3708C11.9962 14.4225 11.6925 14.4465 11.388 14.3806C11.243 14.3489 11.1302 14.2711 11.0298 14.1674C10.9815 14.1169 10.9918 14.0818 11.0526 14.0536C11.2459 13.9639 11.4381 13.8706 11.6335 13.7847C12.2541 13.5114 12.8512 13.1968 13.4125 12.8223C14.2238 12.2807 15.0254 11.7252 15.8333 11.1782C16.2522 10.8945 16.6733 10.6137 17.1264 10.3825C17.4064 10.2401 17.7064 10.1639 18.016 10.1319C18.2658 10.1061 18.5197 10.0873 18.7695 10.1017C19.1618 10.1245 19.5461 10.2077 19.8354 10.4957C20.1554 10.8144 20.3349 11.1969 20.289 11.6568C20.2675 11.8721 20.1556 12.0496 20.0131 12.2073C19.8707 12.365 19.7191 12.5143 19.5753 12.6707C19.5486 12.7016 19.5325 12.7399 19.5292 12.7802C19.4942 13.3248 19.9772 13.7553 20.5013 13.7683C20.7131 13.7712 20.9243 13.7469 21.1296 13.696C21.1577 13.691 21.186 13.6875 21.2144 13.6854Z" fill="white"/>
<path d="M22.7663 13.6757C22.8699 13.697 22.9447 13.7138 23.0199 13.7278C23.3381 13.7872 23.6545 13.8095 23.9515 13.6464C24.302 13.4537 24.4867 13.1632 24.4702 12.7625C24.4689 12.7309 24.4467 12.6939 24.4237 12.669C24.2804 12.5156 24.1313 12.3676 23.9887 12.2129C23.6826 11.879 23.6268 11.4976 23.7815 11.0821C23.9859 10.5328 24.3874 10.2199 24.9737 10.1274C25.271 10.0815 25.5736 10.081 25.8711 10.1258C26.1031 10.1595 26.3402 10.1899 26.5601 10.2643C26.798 10.3447 27.0252 10.4529 27.2368 10.5864C27.8079 10.9502 28.3673 11.3309 28.9294 11.7078C29.507 12.0952 30.0781 12.4922 30.6601 12.8732C31.2966 13.2903 31.9775 13.6285 32.6794 13.9265C32.7579 13.9597 32.8347 13.9974 32.9106 14.0361C33.0234 14.0931 33.0248 14.1114 32.9373 14.1975C32.8276 14.3074 32.6831 14.3774 32.5275 14.396C32.0569 14.4572 31.6046 14.3885 31.1672 14.2138C30.5336 13.9607 29.9554 13.6083 29.382 13.2489C28.9188 12.9583 28.4511 12.6711 28.0459 12.3038C27.864 12.1392 27.7156 11.9389 27.5524 11.7545C27.5363 11.7366 27.527 11.7107 27.5078 11.6993C27.47 11.6797 27.431 11.6625 27.391 11.6477C27.3786 11.6813 27.356 11.7146 27.3554 11.7483C27.3499 12.0352 27.3522 12.3234 27.2505 12.598C27.0175 13.2277 26.5701 13.6174 25.8954 13.741C25.7726 13.7636 25.6441 13.7568 25.5182 13.7623C25.4619 13.7647 25.4055 13.7587 25.3492 13.7652C25.3069 13.7701 25.2661 13.7887 25.2245 13.8012C25.2407 13.8414 25.2477 13.8893 25.2746 13.9207C25.4035 14.0712 25.4126 14.2348 25.3365 14.4074C25.3027 14.4905 25.2603 14.57 25.2099 14.6446C24.884 15.0973 24.4448 15.3913 23.8857 15.4744C23.5194 15.5282 23.1451 15.4711 22.8127 15.3107C22.767 15.289 22.7435 15.2604 22.7447 15.2071C22.7529 14.8436 22.7597 14.4801 22.7652 14.1165C22.7681 13.9763 22.7663 13.8371 22.7663 13.6757Z" fill="white"/>
<path d="M30.5627 14.9301C30.2433 14.9301 29.9475 14.8495 29.6654 14.7087C28.9012 14.3278 28.2052 13.8475 27.5473 13.3114C27.535 13.3013 27.5234 13.2901 27.512 13.279C27.3687 13.1418 27.3657 13.1083 27.4387 12.9285C27.5057 12.763 27.5645 12.5941 27.6225 12.4253C27.6413 12.37 27.6731 12.3477 27.723 12.3738C27.7897 12.4067 27.8525 12.4466 27.9106 12.4927C28.434 12.9291 28.9528 13.3706 29.5176 13.7565C29.9721 14.0672 30.4464 14.3417 30.9562 14.5553C31.0153 14.5798 31.0721 14.6096 31.1258 14.6442C31.2031 14.6945 31.2036 14.7731 31.1237 14.8208C31.0713 14.8522 31.0133 14.8737 30.9528 14.8841C30.8237 14.9052 30.6929 14.9154 30.5627 14.9301Z" fill="white"/>
<path d="M13.428 14.9351C13.283 14.9144 13.1355 14.8938 12.9878 14.8718C12.967 14.8687 12.9414 14.8655 12.9277 14.8524C12.8878 14.8141 12.8325 14.7749 12.8232 14.7282C12.8172 14.6982 12.8742 14.6406 12.9158 14.6196C13.1107 14.521 13.3123 14.4348 13.5077 14.3369C14.1749 14.0024 14.7745 13.569 15.3518 13.1046C15.6095 12.8977 15.8577 12.6805 16.113 12.4719C16.1631 12.4309 16.2248 12.402 16.2844 12.3746C16.3287 12.3544 16.3584 12.3757 16.3753 12.4221C16.4462 12.6169 16.5171 12.812 16.5933 13.0049C16.6232 13.0809 16.6145 13.1473 16.5578 13.1998C16.4434 13.3066 16.3281 13.4135 16.2047 13.5098C15.7052 13.9002 15.181 14.2572 14.6213 14.5606C14.3874 14.6871 14.1531 14.8196 13.8874 14.8734C13.7389 14.9025 13.5862 14.9136 13.428 14.9351Z" fill="white"/>
<path d="M14.8023 15.3406C14.6734 15.3224 14.5427 15.308 14.4142 15.2851C14.3294 15.2693 14.3082 15.1938 14.3728 15.1367C14.42 15.095 14.4775 15.0645 14.531 15.0297C14.8944 14.7924 15.2708 14.5727 15.6175 14.3143C15.9176 14.0908 16.1841 13.8239 16.4656 13.5762C16.5373 13.513 16.6096 13.4497 16.6815 13.3864C16.7167 13.3548 16.749 13.3562 16.787 13.3864C16.9392 13.5063 17.0944 13.6227 17.2465 13.7428C17.3291 13.8081 17.3354 13.8597 17.2579 13.9245C16.7857 14.3209 16.3257 14.7344 15.7836 15.0411C15.481 15.212 15.1608 15.3346 14.8023 15.3406Z" fill="white"/>
<path d="M29.1985 15.3402C28.8336 15.3349 28.5112 15.2058 28.2027 15.0348C27.8178 14.8214 27.484 14.5397 27.1454 14.265C27.0131 14.1577 26.8844 14.0462 26.7547 13.9361C26.6662 13.861 26.667 13.811 26.7587 13.7394C26.905 13.625 27.054 13.514 27.1979 13.3969C27.2506 13.3539 27.29 13.3583 27.3359 13.4002C27.4595 13.5133 27.5871 13.6217 27.7065 13.7387C28.2327 14.2485 28.8238 14.672 29.466 15.0289C29.5205 15.057 29.5713 15.0916 29.6171 15.1319C29.6297 15.1458 29.6394 15.1621 29.6456 15.1797C29.6517 15.1973 29.6542 15.216 29.6529 15.2346C29.6508 15.2548 29.6066 15.282 29.5781 15.2863C29.4528 15.308 29.3255 15.3228 29.1985 15.3402Z" fill="white"/>
<path d="M16.3783 15.578C16.2695 15.5543 16.1804 15.5448 16.0992 15.5147C16.0013 15.4787 15.9934 15.4108 16.0705 15.3407C16.3254 15.1107 16.5879 14.8885 16.835 14.6509C17.0322 14.4611 17.2146 14.2569 17.3966 14.0529C17.4811 13.958 17.5637 13.9026 17.7005 13.9387C17.855 13.9795 18.0138 14.0054 18.1719 14.0314C18.2479 14.044 18.2737 14.0883 18.2491 14.147C18.2077 14.2454 18.1655 14.349 18.0988 14.4308C17.7379 14.8722 17.3034 15.2278 16.7752 15.4619C16.6459 15.5201 16.501 15.5432 16.3783 15.578Z" fill="white"/>
<path d="M27.6123 15.5732C27.5082 15.5463 27.3753 15.5292 27.2578 15.4783C26.7116 15.2429 26.2646 14.8785 25.8934 14.4244C25.8299 14.3467 25.7882 14.2483 25.7518 14.1537C25.7224 14.0775 25.749 14.0486 25.8288 14.0334C26.0045 14 26.181 13.9701 26.3559 13.9321C26.4344 13.9154 26.4914 13.9367 26.5414 13.9933C26.6575 14.1245 26.7658 14.2637 26.8926 14.3842C27.2259 14.7005 27.5683 15.0087 27.9045 15.3226C27.9367 15.3543 27.9804 15.4126 27.969 15.4411C27.9543 15.4806 27.8976 15.5156 27.8513 15.5311C27.7845 15.5537 27.7105 15.5572 27.6123 15.5732Z" fill="white"/>
</g>
<path d="M81.375 4.53V15H79.275V7.695L76.59 15H74.76L72.075 7.725V15H69.96V4.53H72.525L75.705 12.405L78.825 4.53H81.375ZM85.6051 6.09V8.835H89.3551V10.455H85.6051V13.305H89.8051V15H83.4901V4.41H89.8051V6.09H85.6051ZM100.886 9.69C100.886 10.74 100.666 11.665 100.226 12.465C99.7859 13.265 99.1459 13.89 98.3059 14.34C97.4759 14.78 96.4859 15 95.3359 15H91.5709V4.41H95.3359C96.4859 4.41 97.4759 4.63 98.3059 5.07C99.1459 5.5 99.7859 6.115 100.226 6.915C100.666 7.705 100.886 8.63 100.886 9.69ZM95.1559 13.11C96.2959 13.11 97.1759 12.81 97.7959 12.21C98.4259 11.61 98.7409 10.77 98.7409 9.69C98.7409 8.6 98.4259 7.755 97.7959 7.155C97.1759 6.555 96.2959 6.255 95.1559 6.255H93.6859V13.11H95.1559ZM104.784 4.41V15H102.669V4.41H104.784ZM109.013 11.07V15H106.898V4.41H110.753C112.003 4.41 112.943 4.71 113.573 5.31C114.213 5.91 114.533 6.725 114.533 7.755C114.533 8.765 114.203 9.57 113.543 10.17C112.893 10.77 111.963 11.07 110.753 11.07H109.013ZM110.528 9.375C111.768 9.375 112.388 8.835 112.388 7.755C112.388 7.225 112.243 6.82 111.953 6.54C111.663 6.26 111.188 6.12 110.528 6.12H109.013V9.375H110.528ZM124.881 4.41V15H122.751V10.395H118.221V15H116.106V4.41H118.221V8.7H122.751V4.41H124.881ZM133.45 12.87H129.205L128.455 15H126.22L130.12 4.53H132.535L136.42 15H134.185L133.45 12.87ZM132.88 11.265L131.32 6.795L129.76 11.265H132.88ZM143.281 15L140.806 10.875H139.876V15H137.761V4.41H141.796C143.026 4.41 143.961 4.71 144.601 5.31C145.251 5.91 145.576 6.7 145.576 7.68C145.576 8.48 145.351 9.15 144.901 9.69C144.461 10.23 143.821 10.59 142.981 10.77L145.621 15H143.281ZM139.876 9.42H141.616C142.826 9.42 143.431 8.885 143.431 7.815C143.431 7.305 143.281 6.91 142.981 6.63C142.691 6.34 142.236 6.195 141.616 6.195H139.876V9.42ZM158.62 4.53V15H156.52V7.695L153.835 15H152.005L149.32 7.725V15H147.205V4.53H149.77L152.95 12.405L156.07 4.53H158.62ZM76.41 34.87H72.165L71.415 37H69.18L73.08 26.53H75.495L79.38 37H77.145L76.41 34.87ZM75.84 33.265L74.28 28.795L72.72 33.265H75.84ZM87.9965 34.105C87.9965 34.645 87.8615 35.145 87.5915 35.605C87.3215 36.055 86.9215 36.42 86.3915 36.7C85.8615 36.97 85.2165 37.105 84.4565 37.105C83.7065 37.105 83.0365 36.98 82.4465 36.73C81.8565 36.47 81.3815 36.1 81.0215 35.62C80.6715 35.14 80.4715 34.58 80.4215 33.94H82.6715C82.7215 34.37 82.8915 34.73 83.1815 35.02C83.4815 35.3 83.8765 35.44 84.3665 35.44C84.8065 35.44 85.1415 35.325 85.3715 35.095C85.6115 34.855 85.7315 34.55 85.7315 34.18C85.7315 33.85 85.6365 33.58 85.4465 33.37C85.2565 33.15 85.0165 32.975 84.7265 32.845C84.4365 32.715 84.0365 32.565 83.5265 32.395C82.8665 32.175 82.3265 31.96 81.9065 31.75C81.4865 31.53 81.1265 31.215 80.8265 30.805C80.5365 30.395 80.3915 29.86 80.3915 29.2C80.3915 28.29 80.7165 27.575 81.3665 27.055C82.0265 26.525 82.8965 26.26 83.9765 26.26C85.0965 26.26 85.9865 26.53 86.6465 27.07C87.3165 27.61 87.6965 28.33 87.7865 29.23H85.5065C85.4465 28.85 85.2865 28.54 85.0265 28.3C84.7665 28.05 84.4115 27.925 83.9615 27.925C83.5715 27.925 83.2565 28.03 83.0165 28.24C82.7765 28.44 82.6565 28.735 82.6565 29.125C82.6565 29.435 82.7465 29.695 82.9265 29.905C83.1165 30.105 83.3515 30.27 83.6315 30.4C83.9215 30.53 84.3115 30.675 84.8015 30.835C85.4815 31.075 86.0315 31.3 86.4515 31.51C86.8815 31.72 87.2465 32.035 87.5465 32.455C87.8465 32.875 87.9965 33.425 87.9965 34.105ZM97.0295 34.105C97.0295 34.645 96.8945 35.145 96.6245 35.605C96.3545 36.055 95.9545 36.42 95.4245 36.7C94.8945 36.97 94.2495 37.105 93.4895 37.105C92.7395 37.105 92.0695 36.98 91.4795 36.73C90.8895 36.47 90.4145 36.1 90.0545 35.62C89.7045 35.14 89.5045 34.58 89.4545 33.94H91.7045C91.7545 34.37 91.9245 34.73 92.2145 35.02C92.5145 35.3 92.9095 35.44 93.3995 35.44C93.8395 35.44 94.1745 35.325 94.4045 35.095C94.6445 34.855 94.7645 34.55 94.7645 34.18C94.7645 33.85 94.6695 33.58 94.4795 33.37C94.2895 33.15 94.0495 32.975 93.7595 32.845C93.4695 32.715 93.0695 32.565 92.5595 32.395C91.8995 32.175 91.3595 31.96 90.9395 31.75C90.5195 31.53 90.1595 31.215 89.8595 30.805C89.5695 30.395 89.4245 29.86 89.4245 29.2C89.4245 28.29 89.7495 27.575 90.3995 27.055C91.0595 26.525 91.9295 26.26 93.0095 26.26C94.1295 26.26 95.0195 26.53 95.6795 27.07C96.3495 27.61 96.7295 28.33 96.8195 29.23H94.5395C94.4795 28.85 94.3195 28.54 94.0595 28.3C93.7995 28.05 93.4445 27.925 92.9945 27.925C92.6045 27.925 92.2895 28.03 92.0495 28.24C91.8095 28.44 91.6895 28.735 91.6895 29.125C91.6895 29.435 91.7795 29.695 91.9595 29.905C92.1495 30.105 92.3845 30.27 92.6645 30.4C92.9545 30.53 93.3445 30.675 93.8345 30.835C94.5145 31.075 95.0645 31.3 95.4845 31.51C95.9145 31.72 96.2795 32.035 96.5795 32.455C96.8795 32.875 97.0295 33.425 97.0295 34.105ZM100.903 26.41V37H98.7875V26.41H100.903ZM110.291 34.105C110.291 34.645 110.156 35.145 109.886 35.605C109.616 36.055 109.216 36.42 108.686 36.7C108.156 36.97 107.511 37.105 106.751 37.105C106.001 37.105 105.331 36.98 104.741 36.73C104.151 36.47 103.676 36.1 103.316 35.62C102.966 35.14 102.766 34.58 102.716 33.94H104.966C105.016 34.37 105.186 34.73 105.476 35.02C105.776 35.3 106.171 35.44 106.661 35.44C107.101 35.44 107.436 35.325 107.666 35.095C107.906 34.855 108.026 34.55 108.026 34.18C108.026 33.85 107.931 33.58 107.741 33.37C107.551 33.15 107.311 32.975 107.021 32.845C106.731 32.715 106.331 32.565 105.821 32.395C105.161 32.175 104.621 31.96 104.201 31.75C103.781 31.53 103.421 31.215 103.121 30.805C102.831 30.395 102.686 29.86 102.686 29.2C102.686 28.29 103.011 27.575 103.661 27.055C104.321 26.525 105.191 26.26 106.271 26.26C107.391 26.26 108.281 26.53 108.941 27.07C109.611 27.61 109.991 28.33 110.081 29.23H107.801C107.741 28.85 107.581 28.54 107.321 28.3C107.061 28.05 106.706 27.925 106.256 27.925C105.866 27.925 105.551 28.03 105.311 28.24C105.071 28.44 104.951 28.735 104.951 29.125C104.951 29.435 105.041 29.695 105.221 29.905C105.411 30.105 105.646 30.27 105.926 30.4C106.216 30.53 106.606 30.675 107.096 30.835C107.776 31.075 108.326 31.3 108.746 31.51C109.176 31.72 109.541 32.035 109.841 32.455C110.141 32.875 110.291 33.425 110.291 34.105ZM119.249 26.41V28.09H116.324V37H114.209V28.09H111.299V26.41H119.249ZM127.063 34.87H122.818L122.068 37H119.833L123.733 26.53H126.148L130.033 37H127.798L127.063 34.87ZM126.493 33.265L124.933 28.795L123.373 33.265H126.493ZM140.345 37H138.23L133.49 29.8V37H131.375V26.41H133.49L138.23 33.67V26.41H140.345V37ZM149.658 26.41V28.09H146.733V37H144.618V28.09H141.708V26.41H149.658Z" fill="white"/>
<defs>
<clipPath id="clip0_0_1">
<rect width="22" height="27" fill="white" transform="translate(11 10)"/>
</clipPath>
</defs>
</svg>
